<svg width="255" height="193" viewBox="0 0 255 193" fill="none" xmlns="http://www.w3.org/2000/svg">
<path d="M0 16C0 7.16344 7.16344 0 16 0H239C247.837 0 255 7.16344 255 16V193H0V16Z" fill="#F4FEFD"/>
<g clip-path="url(#clip0_28_3920)">
<path d="M53.1101 21.9999H77.5793C78.1062 21.9999 78.5367 22.4266 78.5367 22.9573V104.892C78.5367 106.54 77.1971 107.879 75.5495 107.879H53.1101C51.4625 107.879 50.1229 106.54 50.1229 104.892V24.9871C50.1229 23.3395 51.4625 21.9999 53.1101 21.9999Z" fill="#EBECFE"/>
<path d="M77.2639 23.8626V106.017C77.2639 106.343 76.9967 106.607 76.6739 106.607H74.0763C74.4028 106.607 74.6663 106.339 74.6663 106.017V23.8626C74.6663 23.5361 74.3991 23.2726 74.0763 23.2726H76.6739C77.0004 23.2726 77.2639 23.5398 77.2639 23.8626Z" fill="#BBC5FF"/>
<path d="M81.5796 21.9998H108.932V106.818C108.932 107.404 108.457 107.879 107.871 107.879H81.5796C80.9933 107.879 80.5183 107.404 80.5183 106.818V23.0611C80.5183 22.4748 80.9933 21.9998 81.5796 21.9998Z" fill="#EBECFE"/>
<path d="M107.659 23.8626V106.017C107.659 106.343 107.392 106.607 107.069 106.607H104.472C104.798 106.607 105.065 106.339 105.065 106.017V23.8626C105.065 23.5361 104.798 23.2726 104.472 23.2726H107.069C107.396 23.2726 107.659 23.5398 107.659 23.8626Z" fill="#BBC5FF"/>
<path d="M74.0763 23.2726H51.9858C51.6599 23.2726 51.3958 23.5367 51.3958 23.8626V106.02C51.3958 106.346 51.6599 106.61 51.9858 106.61H74.0763C74.4022 106.61 74.6663 106.346 74.6663 106.02V23.8626C74.6663 23.5367 74.4022 23.2726 74.0763 23.2726Z" fill="#A1E0C6"/>
<path d="M104.476 23.2726H82.3813C82.0554 23.2726 81.7913 23.5367 81.7913 23.8626V106.02C81.7913 106.346 82.0554 106.61 82.3813 106.61H104.476C104.801 106.61 105.066 106.346 105.066 106.02V23.8626C105.066 23.5367 104.801 23.2726 104.476 23.2726Z" fill="#A1E0C6"/>
<path d="M68.2393 43.0365C64.5581 46.7176 60.8807 50.395 57.1996 54.0762C56.6912 54.5846 57.4779 55.3713 57.9863 54.8629C61.6674 51.1817 65.3448 47.5043 69.026 43.8232C69.5343 43.3148 68.7477 42.5281 68.2393 43.0365Z" fill="white"/>
<path d="M65.4709 51.4712C64.6063 52.3098 63.7379 53.1484 62.8733 53.9871C62.6655 54.1912 62.6544 54.5734 62.8733 54.7738C63.0923 54.9742 63.4374 54.989 63.66 54.7738C64.5246 53.9351 65.393 53.0965 66.2576 52.2578C66.4654 52.0538 66.4765 51.6715 66.2576 51.4712C66.0386 51.2708 65.6935 51.2559 65.4709 51.4712Z" fill="white"/>
<path d="M66.1278 47.8272C65.56 48.3949 64.9923 48.9627 64.4245 49.5304C64.2167 49.7382 64.2019 50.113 64.4245 50.3171C64.6472 50.5212 64.9923 50.5361 65.2112 50.3171C65.779 49.7494 66.3467 49.1816 66.9145 48.6139C67.1223 48.406 67.1371 48.0313 66.9145 47.8272C66.6918 47.6231 66.3467 47.6082 66.1278 47.8272Z" fill="white"/>
<path d="M60.9327 40.4389C60.12 41.2516 59.3073 42.0642 58.4984 42.8732C58.2906 43.081 58.2757 43.4558 58.4984 43.6599C58.721 43.864 59.0661 43.8788 59.2851 43.6599C60.0977 42.8472 60.9104 42.0345 61.7194 41.2256C61.9272 41.0178 61.942 40.643 61.7194 40.4389C61.4967 40.2348 61.1516 40.2199 60.9327 40.4389Z" fill="white"/>
<path d="M62.3946 68.1216C60.58 69.9362 58.7692 71.7471 56.9546 73.5617C56.4462 74.0701 57.2329 74.8568 57.7413 74.3484C59.5559 72.5338 61.3667 70.7229 63.1813 68.9083C63.6897 68.3999 62.903 67.6132 62.3946 68.1216Z" fill="white"/>
<path d="M93.0347 44.339C90.0772 47.8606 87.116 51.3859 84.1584 54.9074C83.702 55.4529 84.485 56.2433 84.9451 55.6941C87.9027 52.1726 90.8639 48.6473 93.8214 45.1257C94.2779 44.5802 93.4949 43.7898 93.0347 44.339Z" fill="white"/>
<path d="M90.8084 52.4174C90.1108 53.2189 89.4169 54.0242 88.7193 54.8257C88.53 55.0446 88.4855 55.4009 88.7193 55.6124C88.9271 55.8054 89.3019 55.8462 89.5059 55.6124C90.2036 54.8109 90.8975 54.0056 91.5951 53.2041C91.7844 52.9851 91.8289 52.6289 91.5951 52.4174C91.3873 52.2244 91.0125 52.1836 90.8084 52.4174Z" fill="white"/>
<path d="M91.3353 48.9256C90.8789 49.4711 90.4224 50.0128 89.966 50.5583C89.8695 50.6734 89.8027 50.7958 89.8027 50.9517C89.8027 51.089 89.8621 51.2523 89.966 51.345C90.0699 51.4378 90.2109 51.5157 90.3594 51.5083C90.5004 51.5009 90.6599 51.4564 90.7527 51.345C91.2091 50.7995 91.6656 50.2578 92.122 49.7123C92.2185 49.5972 92.2853 49.4748 92.2853 49.3189C92.2853 49.1816 92.2259 49.0183 92.122 48.9256C92.0181 48.8328 91.8771 48.7549 91.7287 48.7623C91.5876 48.7697 91.4281 48.8142 91.3353 48.9256Z" fill="white"/>
<path d="M87.157 41.8527C86.5039 42.6282 85.8508 43.4075 85.1977 44.1831C85.0121 44.4057 84.9639 44.7545 85.1977 44.9698C85.4055 45.159 85.784 45.2072 85.9844 44.9698C86.6375 44.1942 87.2906 43.4149 87.9437 42.6394C88.1292 42.4167 88.1775 42.0679 87.9437 41.8527C87.7359 41.6634 87.3574 41.6152 87.157 41.8527Z" fill="white"/>
<path d="M88.3332 68.3554C86.8749 70.0921 85.4165 71.825 83.9582 73.5617C83.7652 73.7918 83.7318 74.122 83.9582 74.3484C84.1548 74.5451 84.5519 74.5785 84.7448 74.3484C86.2032 72.6117 87.6616 70.8788 89.1199 69.1421C89.3129 68.912 89.3463 68.5818 89.1199 68.3554C88.9232 68.1587 88.5262 68.1253 88.3332 68.3554Z" fill="white"/>
<path d="M113.686 54.8926C113.611 55.0447 113.515 55.1783 113.4 55.2859C113.437 55.4974 113.422 55.7275 113.348 55.9539C113.133 56.6107 112.487 56.9929 111.882 56.8333C111.908 57.0337 111.89 57.2452 111.823 57.4493C111.66 57.9466 111.248 58.2842 110.799 58.351C110.532 58.7295 110.097 58.9411 109.659 58.8891C109.351 59.3455 108.802 59.5682 108.294 59.4012C107.949 59.2862 107.693 59.0153 107.574 58.6813C107.273 59.1674 106.702 59.4123 106.175 59.2379C105.8 59.1155 105.533 58.8038 105.429 58.429C105.11 58.8038 104.616 58.9745 104.153 58.8223C103.726 58.6813 103.44 58.3028 103.373 57.8612C103.084 58.043 102.731 58.1024 102.397 57.9911C102.323 57.9688 102.256 57.9354 102.19 57.8983C102.115 57.8909 102.041 57.8723 101.967 57.8501C101.41 57.6683 101.091 57.0745 101.188 56.4659C100.972 56.529 100.746 56.529 100.523 56.4585C99.9111 56.2581 99.5883 55.5642 99.785 54.8963C99.6773 54.8963 99.566 54.8777 99.4584 54.8406C98.835 54.6365 98.5084 53.9166 98.7348 53.2338C98.7979 53.0409 98.9018 52.8702 99.0279 52.7291C98.9278 52.5176 98.8832 52.2764 98.9055 52.0278C98.412 51.7495 98.1782 51.1149 98.3786 50.5101C98.4936 50.1575 98.7348 49.8829 99.0279 49.7308C98.9797 49.5044 98.9908 49.2595 99.0725 49.022C99.2024 48.625 99.4918 48.3281 99.8332 48.1908C99.7516 47.9311 99.7516 47.6379 99.8443 47.3559C100 46.8809 100.379 46.5506 100.805 46.4616C100.798 46.2946 100.817 46.1202 100.876 45.9495C101.036 45.4708 101.425 45.1368 101.859 45.0515C102.075 44.48 102.627 44.1349 103.169 44.2054C103.169 44.198 103.169 44.1943 103.173 44.1868C103.399 43.504 104.086 43.1218 104.709 43.3259C104.743 43.3371 104.776 43.3482 104.806 43.363C105.025 43.2962 105.258 43.2925 105.485 43.3667C105.652 43.4224 105.8 43.5152 105.919 43.6339C106.223 43.1664 106.784 42.9363 107.296 43.1033C107.659 43.222 107.923 43.5152 108.03 43.8751C108.294 43.749 108.594 43.7193 108.88 43.812C109.303 43.953 109.589 44.3241 109.659 44.762C109.73 44.7694 109.804 44.7843 109.875 44.8102C109.901 44.8177 109.927 44.8288 109.953 44.8399C110.268 44.4392 110.784 44.2499 111.259 44.4095C111.559 44.5097 111.789 44.7249 111.923 44.9995C111.994 45.0069 112.068 45.0218 112.138 45.0477C112.617 45.2036 112.918 45.66 112.932 46.1721C112.958 46.1795 112.988 46.187 113.014 46.1944C113.637 46.3985 113.964 47.1184 113.738 47.8012C113.719 47.8605 113.693 47.9199 113.667 47.9756C113.901 48.2724 113.997 48.6881 113.894 49.1C114.406 49.3709 114.651 50.0165 114.45 50.6362C114.391 50.8218 114.294 50.9851 114.172 51.1224C114.187 51.3042 114.168 51.4897 114.105 51.679C114.086 51.7309 114.068 51.7792 114.046 51.8274C114.198 52.0538 114.276 52.3321 114.257 52.6252C114.617 52.9444 114.762 53.4862 114.591 54.0057C114.439 54.4621 114.079 54.7887 113.671 54.8888L113.686 54.8926Z" fill="#13337E"/>
<path d="M104.038 60.5665C103.989 60.6667 103.919 60.7557 103.841 60.8262C103.871 60.9709 103.867 61.1231 103.815 61.2715C103.67 61.7057 103.214 61.9506 102.776 61.8356C102.798 61.9692 102.791 62.1102 102.743 62.2475C102.635 62.5777 102.345 62.7967 102.023 62.8338C101.837 63.0824 101.529 63.216 101.214 63.1752C100.998 63.4758 100.609 63.6168 100.241 63.4943C99.9891 63.4127 99.8036 63.2271 99.7108 62.9971C99.503 63.3199 99.0985 63.472 98.7163 63.3459C98.4454 63.2568 98.245 63.0453 98.1634 62.7892C97.9407 63.0342 97.5882 63.1418 97.2542 63.0305C96.9462 62.9303 96.7347 62.6705 96.6753 62.3699C96.4712 62.485 96.2189 62.5184 95.974 62.4404C95.922 62.4219 95.8701 62.3996 95.8255 62.3736C95.7736 62.3662 95.7179 62.3551 95.666 62.3365C95.2615 62.2029 95.024 61.8022 95.0797 61.394C94.9275 61.4311 94.7605 61.4274 94.601 61.3754C94.1594 61.2307 93.9108 60.7594 94.0406 60.3141C93.9627 60.3141 93.8848 60.2956 93.8069 60.2733C93.3541 60.1249 93.1092 59.635 93.2577 59.1823C93.2985 59.0524 93.369 58.9411 93.458 58.8484C93.3801 58.7073 93.3467 58.5441 93.3578 58.3771C92.9979 58.1804 92.8198 57.7499 92.9534 57.3492C93.0313 57.1154 93.1983 56.9373 93.4061 56.8371C93.369 56.6849 93.3727 56.5217 93.4246 56.3621C93.51 56.0986 93.7141 55.9057 93.9553 55.8203C93.8922 55.6459 93.8848 55.4492 93.9479 55.26C94.0518 54.9446 94.319 54.7293 94.6232 54.6774C94.6158 54.5661 94.6232 54.451 94.6641 54.336C94.768 54.0169 95.0426 53.8016 95.3543 53.7534C95.499 53.3749 95.8886 53.1522 96.282 53.2079C96.282 53.2042 96.282 53.2005 96.282 53.1968C96.4304 52.744 96.9202 52.4991 97.373 52.6476C97.3952 52.655 97.4212 52.6661 97.4435 52.6735C97.5993 52.6327 97.77 52.6364 97.9333 52.6884C98.0558 52.7292 98.1634 52.7923 98.2524 52.8776C98.4639 52.5696 98.861 52.4249 99.2321 52.5474C99.4956 52.6327 99.6885 52.8368 99.7739 53.078C99.9594 52.9964 100.175 52.9815 100.386 53.052C100.69 53.1522 100.906 53.4083 100.961 53.7052C101.013 53.7126 101.065 53.7237 101.117 53.7423C101.136 53.7497 101.154 53.7571 101.173 53.7645C101.392 53.5011 101.759 53.386 102.104 53.4973C102.323 53.5678 102.49 53.72 102.594 53.9055C102.646 53.913 102.698 53.9241 102.75 53.9426C103.095 54.0577 103.321 54.3694 103.34 54.7108C103.359 54.7145 103.381 54.7219 103.399 54.7256C103.852 54.8741 104.097 55.3639 103.949 55.8166C103.934 55.8574 103.919 55.8945 103.9 55.9316C104.075 56.1357 104.149 56.4178 104.086 56.6924C104.457 56.8816 104.646 57.3232 104.513 57.7314C104.472 57.8539 104.405 57.9615 104.323 58.0505C104.338 58.173 104.323 58.2992 104.286 58.4216C104.275 58.455 104.264 58.4884 104.245 58.5181C104.357 58.6702 104.42 58.8632 104.412 59.0562C104.676 59.2751 104.791 59.6425 104.68 59.9876C104.579 60.2919 104.327 60.5034 104.034 60.5628L104.038 60.5665Z" fill="#13337E"/>
<path d="M110.468 60.2807C108.799 61.4125 107.437 60.8855 107.437 60.8855L106.765 61.8429L110.12 69.7989C110.12 69.7989 106.283 72.7973 102.186 70.7452C98.0892 68.6931 97.2208 66.6225 97.2208 66.6225L101.247 59.442L102.438 56.1431C102.438 56.1431 99.9668 55.1003 100.594 53.3637C101.128 51.8831 102.268 52.3246 102.769 52.718C102.668 52.8145 102.616 52.8701 102.616 52.8701C102.616 52.8701 102.754 52.8813 102.947 52.8887C103.333 52.9035 103.952 52.8998 104.245 52.7625C104.691 52.5584 104.772 52.3024 104.772 52.3024C104.772 52.3024 105.637 52.3766 106.06 52.2467C106.479 52.1131 106.78 51.5565 106.78 51.5565C106.78 51.5565 107.444 51.7532 107.808 51.5676C108.171 51.3821 108.372 51.0481 108.372 51.0481C108.372 51.0481 108.628 51.4378 109.125 51.46C109.622 51.4823 109.938 51.3042 109.938 51.3042C109.938 51.3042 109.971 51.3784 110.034 51.4823C110.168 51.7049 110.428 52.0686 110.78 52.1688C111.296 52.3135 111.563 52.2393 111.563 52.2393C111.563 52.2393 111.437 52.9481 111.994 53.2486C112.55 53.5492 112.84 53.527 112.84 53.527C112.84 53.527 112.899 53.7385 113.033 53.9166C112.769 55.2488 111.86 59.3381 110.468 60.2807Z" fill="#FBBD9D"/>
<path d="M102.95 52.885C102.754 52.8776 102.62 52.8664 102.62 52.8664C102.62 52.8664 102.672 52.8108 102.772 52.7143C102.846 52.7737 102.91 52.8293 102.95 52.8813V52.885Z" fill="#A05F5D"/>
<path d="M101.622 53.256C101.659 53.2709 101.692 53.2894 101.726 53.308C101.748 53.3191 101.767 53.3339 101.785 53.3451C101.789 53.3451 101.83 53.3785 101.815 53.3673C101.8 53.3562 101.837 53.3896 101.841 53.3933C101.856 53.4044 101.871 53.4193 101.882 53.4341C101.9 53.4527 101.915 53.4675 101.93 53.4861C101.937 53.4935 101.956 53.5195 101.941 53.4972C102.052 53.6419 102.101 53.7644 102.123 53.9536C102.141 54.1058 102.123 54.2765 102.075 54.4361C102.06 54.4806 102.056 54.5028 102.038 54.5325C102.026 54.5511 102.015 54.5696 102.004 54.5882C102.004 54.5919 101.974 54.6253 101.993 54.6067C101.982 54.6216 101.967 54.6364 101.952 54.6476C101.978 54.6253 101.934 54.6587 101.926 54.6624C101.889 54.6847 101.956 54.655 101.911 54.6698C101.9 54.6698 101.845 54.681 101.885 54.6773C101.737 54.6884 101.607 54.796 101.607 54.9556C101.607 55.0966 101.733 55.245 101.885 55.2339C102.498 55.1893 102.72 54.514 102.683 53.9833C102.646 53.4527 102.375 52.9851 101.9 52.7773C101.763 52.7179 101.6 52.7365 101.518 52.8775C101.448 52.9962 101.481 53.1966 101.618 53.2597L101.622 53.256Z" fill="#FBBD9D"/>
<path d="M102.587 54.31C102.528 54.0799 102.394 53.8387 102.171 53.7311C102.112 53.7014 102.056 53.6791 101.993 53.668C101.897 53.6531 101.819 53.6569 101.726 53.668C101.615 53.6865 101.507 53.7162 101.4 53.7496C101.262 53.7942 101.158 53.9463 101.207 54.091C101.255 54.2358 101.4 54.3322 101.548 54.284C101.656 54.2506 101.767 54.2172 101.882 54.1986L101.808 54.2098C101.845 54.2061 101.882 54.2024 101.919 54.2098L101.845 54.1986C101.875 54.2024 101.904 54.2098 101.934 54.2209L101.867 54.1912C101.904 54.2061 101.938 54.2283 101.971 54.2506L101.915 54.2061C101.949 54.232 101.975 54.2617 102.001 54.2914L101.956 54.2358C101.99 54.2803 102.016 54.3248 102.034 54.3731L102.004 54.3063C102.023 54.3508 102.038 54.3953 102.049 54.4436C102.086 54.5846 102.249 54.6848 102.39 54.6365C102.531 54.5883 102.624 54.4436 102.583 54.2951L102.587 54.31Z" fill="#FBBD9D"/>
<path d="M107.455 60.8967C107.455 60.8967 106.427 60.1434 105.518 59.1972C104.609 58.2509 104.19 57.4531 104.19 57.4531C104.19 57.4531 103.937 59.2305 104.939 60.6258C105.941 62.0211 106.765 61.8467 106.765 61.8467L107.455 60.8967Z" fill="#FBBD9D"/>
<path d="M111.822 58.0361C111.934 57.6955 111.65 57.2956 111.186 57.1429C110.723 56.9903 110.257 57.1426 110.144 57.4833C110.032 57.8239 110.317 58.2238 110.78 58.3765C111.243 58.5291 111.71 58.3768 111.822 58.0361Z" fill="#FBBD9D"/>
<path d="M108.333 56.6302C108.48 56.1864 108.051 55.6462 107.375 55.4236C106.7 55.201 106.034 55.3804 105.887 55.8242C105.741 56.268 106.17 56.8082 106.846 57.0308C107.521 57.2533 108.187 57.074 108.333 56.6302Z" fill="#FBBD9D"/>
<path d="M111.68 55.7132C111.775 55.4271 111.709 55.1484 111.534 55.0906C111.359 55.0329 111.14 55.218 111.046 55.5042C110.952 55.7903 111.017 56.069 111.192 56.1268C111.367 56.1845 111.586 55.9994 111.68 55.7132Z" fill="#13337E"/>
<path d="M108.261 54.5682C108.358 54.2743 108.264 53.9793 108.052 53.9094C107.84 53.8395 107.59 54.0211 107.493 54.315C107.396 54.6089 107.489 54.9038 107.702 54.9738C107.914 55.0437 108.164 54.8621 108.261 54.5682Z" fill="#13337E"/>
<path d="M107.44 57.3642C107.336 57.6165 107.325 57.8837 107.388 58.1323C107.474 58.4589 107.693 58.7483 108.019 58.9153C108.335 59.0749 108.691 59.086 108.999 58.971C109.247 58.8782 109.466 58.7075 109.611 58.4663C109.641 58.418 109.622 58.3587 109.574 58.3327L107.57 57.3159C107.57 57.3159 107.552 57.3085 107.54 57.3085C107.5 57.3011 107.459 57.3234 107.44 57.3642Z" fill="#822C47"/>
<path d="M107.541 57.3046C107.697 57.5903 108.005 57.8797 108.409 58.0838C108.813 58.2879 109.236 58.3659 109.559 58.3213L107.57 57.3157C107.57 57.3157 107.552 57.3083 107.541 57.3083V57.3046Z" fill="white"/>
<path d="M107.392 58.1321C107.477 58.4586 107.696 58.7481 108.023 58.9151C108.338 59.0746 108.695 59.0858 109.003 58.9707C108.832 58.7518 108.576 58.5403 108.26 58.3807C107.964 58.2286 107.659 58.1469 107.392 58.1321Z" fill="#FBBD9D"/>
<path d="M109.786 55.0002C109.66 55.1932 109.574 55.4084 109.552 55.6385C109.53 55.8685 109.604 56.0726 109.704 56.2693C109.745 56.3472 109.793 56.4252 109.834 56.5031C109.856 56.5476 109.882 56.5884 109.901 56.6367C109.89 56.6107 109.901 56.6441 109.904 56.6515C109.912 56.6701 109.916 56.7072 109.927 56.7257C109.93 56.7443 109.934 56.748 109.927 56.7331L109.942 56.6812C109.945 56.6626 109.975 56.6552 109.949 56.6626C109.912 56.6701 109.886 56.696 109.852 56.7072C109.745 56.7443 109.663 56.7591 109.559 56.7628C109.411 56.7703 109.281 56.8853 109.281 57.0411C109.281 57.1859 109.407 57.3269 109.559 57.3195C109.819 57.3083 110.12 57.249 110.32 57.0783C110.569 56.8704 110.476 56.555 110.353 56.3027C110.309 56.2136 110.257 56.1283 110.209 56.0429C110.186 56.0058 110.153 55.9353 110.146 55.9168C110.138 55.9019 110.116 55.8351 110.109 55.798C110.09 55.7238 110.101 55.6496 110.123 55.5605C110.153 55.464 110.194 55.3824 110.261 55.2859C110.342 55.1598 110.287 54.9779 110.16 54.9037C110.023 54.8258 109.864 54.8777 109.778 55.0039L109.786 55.0002Z" fill="#FBBD9D"/>
<path d="M109.288 53.4824C109.318 53.5047 109.359 53.475 109.355 53.4342C109.329 53.2746 109.218 52.9666 108.773 52.8182C108.153 52.6141 107.682 52.885 107.726 53.0668C107.771 53.2486 108.134 52.9555 108.632 53.1447C108.969 53.2709 109.188 53.4082 109.292 53.4824H109.288Z" fill="#13337E"/>
<path d="M112.194 54.7665C112.216 54.7813 112.25 54.759 112.242 54.7293C112.22 54.6069 112.138 54.3694 111.793 54.2581C111.318 54.1022 110.955 54.31 110.988 54.4473C111.021 54.5846 111.303 54.362 111.682 54.5067C111.942 54.6032 112.109 54.7108 112.19 54.7665H112.194Z" fill="#13337E"/>
<path d="M100.093 53.6346C100.093 53.6346 103.221 46.6694 108.691 46.8624C114.161 47.0553 114.124 50.6511 113.986 51.7866C113.849 52.9221 113.734 53.2598 113.734 53.2598C113.734 53.2598 115.905 50.6103 116.027 49.2633C116.15 47.9162 114.933 47.6528 114.933 47.6528C114.933 47.6528 115.983 46.3688 115.423 45.3372C114.862 44.3056 114.12 44.5542 114.12 44.5542C114.12 44.5542 113.834 43.3668 112.573 43.1256C111.311 42.8844 110.817 43.274 110.817 43.274C110.817 43.274 109.871 41.9121 108.509 42.4836C107.147 43.0551 107.084 43.5004 107.084 43.5004C107.084 43.5004 105.73 42.6246 104.817 43.6154C103.904 44.6062 104.127 45.7677 104.127 45.7677C104.127 45.7677 103.333 45.5005 102.932 46.5544C102.531 47.6082 103.251 47.5711 102.68 48.4357C102.108 49.3004 100.182 51.9017 100.093 53.6346Z" fill="#FFBA2E"/>
<path d="M142.905 74.9496H191.531C201.573 74.9496 209.722 83.1023 209.722 93.14V167.216H124.714V93.14C124.714 83.0986 132.867 74.9496 142.905 74.9496Z" fill="#B2B2B2"/>
<path d="M139.075 74.9496H187.702C197.743 74.9496 205.892 83.1022 205.892 93.14V167.215H120.885V93.14C120.885 83.0985 129.037 74.9496 139.075 74.9496Z" fill="#E0E0E0"/>
<path d="M191.439 80.4973H135.338C130.18 80.4973 125.998 84.6794 125.998 89.8374V161.664H200.779V89.8374C200.779 84.6794 196.597 80.4973 191.439 80.4973ZM198.319 158.992H128.459V89.5628C128.459 85.7852 131.52 82.7237 135.298 82.7237H191.479C195.257 82.7237 198.319 85.7852 198.319 89.5628V158.992Z" fill="#B2B2B2"/>
<path d="M67.9684 177.91H85.1124C85.1124 177.91 85.4056 175.977 84.6745 175.008C83.9398 174.043 80.0583 170.34 80.0583 170.017C80.0583 169.694 81.5982 157.052 82.6967 152.461C83.7394 148.112 84.515 139.852 84.4704 136.876C84.4704 136.713 84.463 136.564 84.4556 136.434C84.3071 133.937 84.5261 133.696 85.9956 131.039C87.4613 128.382 89.2908 114.14 89.2908 114.14L74.6701 116.544C74.6701 116.544 74.1989 131.098 74.3102 132.49C74.3436 132.942 74.3993 134.197 74.4586 135.766C74.5774 138.991 74.6998 143.559 74.6701 145.292C74.6293 147.871 74.711 167.197 73.7573 169.531C72.8073 171.869 68.9963 174.767 67.9721 175.814C66.9442 176.86 67.9721 177.906 67.9721 177.906L67.9684 177.91Z" fill="#FBBD9D"/>
<path d="M93.4321 128.99C94.6938 132.675 94.5862 132.43 94.4748 134.004C94.4414 134.475 94.4117 135.503 94.4303 136.932C94.4823 140.264 94.8199 145.771 96.1261 151.515C97.9927 159.731 99.9186 167.46 99.8629 169.635C99.8073 171.81 98.7089 173.019 98.7089 174.225C98.7089 175.435 99.0391 177.91 99.0391 177.91H117.827C117.827 177.91 118.818 176.159 117.827 175.554C116.84 174.949 108.268 171.628 106.62 169.936C104.973 168.247 105.247 165.468 105.247 165.468C105.247 165.468 105.418 142.668 105.422 135.751C105.422 134.772 105.422 134.111 105.414 133.881C105.359 132.007 104.809 128.868 104.809 128.868L103.403 112.433L89.8177 111.23C89.8177 111.23 92.1741 125.302 93.4395 128.987L93.4321 128.99Z" fill="#FBBD9D"/>
<path d="M118.621 177.636C118.621 177.636 118.896 175.854 118.072 175.008C117.248 174.162 110.546 169.635 108.045 170.448C105.544 171.264 105.106 175.854 103.622 175.821C102.138 175.788 98.4305 175.91 98.3748 176.396C98.3192 176.882 98.5121 177.906 98.5121 177.906C98.5121 177.906 118.977 178.782 118.621 177.636Z" fill="#4C4F55"/>
<path d="M85.6987 177.91C85.6987 177.91 86.3221 172.756 79.1046 171.591C71.887 170.422 69.3971 173.925 68.7402 174.752C68.0797 175.576 67.4934 176.263 67.4934 177.227C67.4934 178.192 67.512 177.91 67.512 177.91H85.695H85.6987Z" fill="#4C4F55"/>
<path d="M103.396 112.433L89.8102 111.23C89.8102 111.23 92.1666 125.302 93.4319 128.987C94.6936 132.671 94.586 132.427 94.4747 134C94.4413 134.471 94.4116 135.499 94.4302 136.928C98.2041 136.727 101.878 136.327 105.422 135.751C105.422 134.772 105.422 134.111 105.414 133.881C105.359 132.007 104.809 128.868 104.809 128.868L103.403 112.433H103.396Z" fill="#EA758E"/>
<path d="M74.3064 132.493C74.3398 132.946 74.3955 134.2 74.4549 135.77C77.6907 136.293 81.0379 136.668 84.4667 136.88C84.4667 136.716 84.4593 136.568 84.4518 136.438C84.3034 133.941 84.5223 133.699 85.9918 131.042C87.4576 128.386 89.287 114.143 89.287 114.143L74.6664 116.548C74.6664 116.548 74.1951 131.102 74.3064 132.493Z" fill="#EA758E"/>
<path d="M161.652 101.341C160.379 105.237 160.509 109.011 160.509 109.011C160.509 109.011 158.312 119.639 158.984 121.116C159.292 121.788 159.737 122.515 159.952 123.161C160.216 123.933 160.149 124.586 159.121 124.879C158.713 124.994 157.915 125.024 156.854 124.998C155.945 124.972 154.835 124.912 153.618 124.834C151.603 124.697 149.272 124.515 146.998 124.382C144.871 124.255 142.79 124.17 141.049 124.211C139.238 124.252 137.235 124.281 135.238 124.307C130.57 124.367 125.939 124.426 123.916 124.615C121.029 124.883 121.497 123.944 121.961 121.858C122.425 119.776 122.102 117.491 121.972 113.795C121.953 113.323 121.972 112.848 122.005 112.37C122.124 110.774 122.51 109.175 122.885 107.768C123.2 106.592 123.512 105.553 123.649 104.777C123.683 104.588 123.705 104.414 123.716 104.258C123.735 104.005 123.705 103.709 123.642 103.386C123.267 101.348 121.638 98.0273 122.506 96.0605C123.512 93.7784 123.983 95.7934 127.546 96.3982C131.108 96.9994 134.062 96.1941 139.977 95.7228C141.313 95.6189 142.83 95.5855 144.396 95.6041C147.024 95.6301 149.799 95.7859 152.16 95.9344C154.598 96.0828 156.59 96.2238 157.514 96.1941C159.867 96.131 159.177 94.9658 161.463 95.4371C163.748 95.9047 162.939 97.4521 161.663 101.348L161.652 101.341Z" fill="url(#paint0_linear_28_3920)"/>
<path d="M161.051 97.9827C161.051 97.9827 160.702 98.6136 158.487 105.067C156.271 111.516 156.364 118.095 156.364 120.311C156.364 122.526 157.303 122.53 157.373 121.925C157.444 121.32 158.449 113.264 159.255 110.069C160.06 106.874 161.054 97.9827 161.054 97.9827H161.051Z" fill="#E0E0E0"/>
<path d="M156.987 101.029C155.767 106.922 154.876 112.878 154.271 118.867C154.201 119.58 155.314 119.576 155.384 118.867C155.978 112.978 156.861 107.123 158.06 101.326C158.205 100.629 157.132 100.328 156.987 101.029Z" fill="#E0E0E0"/>
<path d="M136.415 106.711C138.675 108.997 141.224 110.986 143.988 112.626C144.604 112.993 145.168 112.028 144.549 111.665C141.862 110.073 139.394 108.147 137.201 105.924C136.697 105.412 135.91 106.202 136.415 106.711Z" fill="#E0E0E0"/>
<path d="M139.42 111.141C140.007 111.672 140.63 112.166 141.28 112.618C141.395 112.696 141.58 112.711 141.71 112.674C141.84 112.637 141.981 112.54 142.044 112.418C142.192 112.132 142.1 111.835 141.844 111.657C141.602 111.49 141.361 111.316 141.127 111.134L141.239 111.219C140.882 110.945 140.541 110.655 140.207 110.355C139.992 110.158 139.628 110.125 139.42 110.355C139.224 110.566 139.19 110.934 139.42 111.141Z" fill="#E0E0E0"/>
<path d="M141.324 103.928C141.788 104.243 142.248 104.555 142.712 104.87C142.827 104.948 143.013 104.963 143.142 104.926C143.272 104.889 143.413 104.792 143.476 104.67C143.625 104.388 143.536 104.083 143.276 103.909C142.812 103.594 142.352 103.282 141.888 102.966C141.773 102.888 141.588 102.874 141.458 102.911C141.328 102.948 141.187 103.044 141.124 103.167C140.975 103.449 141.064 103.753 141.324 103.928Z" fill="#E0E0E0"/>
<path d="M124.366 98.3872C124.128 101.052 123.798 103.705 123.375 106.343C123.326 106.644 123.453 106.937 123.764 107.03C124.028 107.104 124.403 106.937 124.451 106.64C124.889 103.901 125.234 101.148 125.482 98.3872C125.546 97.6747 124.432 97.6784 124.369 98.3872H124.366Z" fill="#E0E0E0"/>
<path d="M125.16 120.838C126.633 122.155 128.24 123.32 129.95 124.304C130.574 124.66 131.134 123.699 130.511 123.343C128.878 122.404 127.349 121.305 125.947 120.051C125.724 119.851 125.379 119.828 125.16 120.051C124.956 120.255 124.933 120.637 125.16 120.838Z" fill="#E0E0E0"/>
<path d="M202.059 99.3594C200.786 103.256 200.916 107.03 200.916 107.03C200.916 107.03 198.719 117.657 199.391 119.134C199.699 119.806 200.144 120.533 200.359 121.179C200.623 121.951 200.556 122.604 199.528 122.897C199.12 123.012 198.322 123.042 197.261 123.016C196.352 122.99 195.242 122.931 194.025 122.853C192.01 122.715 189.68 122.534 187.405 122.4C185.279 122.274 183.197 122.188 181.457 122.229C179.646 122.27 177.642 122.3 175.645 122.326C170.977 122.385 166.346 122.444 164.324 122.634C161.437 122.901 161.904 121.962 162.368 119.877C162.832 117.795 162.509 115.509 162.379 111.813C162.361 111.342 162.379 110.867 162.413 110.388C162.531 108.792 162.917 107.193 163.292 105.787C163.607 104.61 163.919 103.571 164.056 102.796C164.09 102.606 164.112 102.432 164.123 102.276C164.142 102.024 164.112 101.727 164.049 101.404C163.674 99.3668 162.045 96.0456 162.914 94.0789C163.919 91.7967 164.39 93.8117 167.953 94.4166C171.515 95.0177 174.469 94.2125 180.384 93.7412C181.72 93.6373 183.238 93.6039 184.804 93.6225C187.431 93.6484 190.207 93.8043 192.567 93.9527C195.005 94.1012 196.997 94.2422 197.921 94.2125C200.274 94.1494 199.584 92.9842 201.87 93.4555C204.156 93.923 203.347 95.4705 202.07 99.3668L202.059 99.3594Z" fill="url(#paint1_linear_28_3920)"/>
<path d="M201.458 96.0012C201.458 96.0012 201.109 96.632 198.894 103.085C196.678 109.535 196.771 116.114 196.771 118.329C196.771 120.545 197.71 120.548 197.78 119.943C197.851 119.339 198.857 111.282 199.662 108.087C200.467 104.892 201.462 96.0012 201.462 96.0012H201.458Z" fill="#E0E0E0"/>
<path d="M197.398 99.0478C196.177 104.941 195.287 110.896 194.682 116.886C194.611 117.598 195.725 117.595 195.795 116.886C196.389 110.997 197.272 105.141 198.471 99.3447C198.615 98.647 197.543 98.3465 197.398 99.0478Z" fill="#E0E0E0"/>
<path d="M176.822 104.729C179.081 107.015 181.631 109.004 184.395 110.644C185.011 111.011 185.575 110.047 184.956 109.683C182.269 108.091 179.801 106.165 177.608 103.942C177.104 103.43 176.317 104.221 176.822 104.729Z" fill="#E0E0E0"/>
<path d="M179.827 109.16C180.414 109.69 181.037 110.184 181.687 110.637C181.802 110.715 181.987 110.73 182.117 110.692C182.247 110.655 182.388 110.559 182.451 110.436C182.599 110.151 182.507 109.854 182.251 109.676C182.009 109.509 181.768 109.334 181.534 109.152L181.646 109.238C181.289 108.963 180.948 108.674 180.614 108.373C180.399 108.176 180.035 108.143 179.827 108.373C179.631 108.585 179.597 108.952 179.827 109.16Z" fill="#E0E0E0"/>
<path d="M181.731 101.946C182.195 102.261 182.655 102.573 183.119 102.889C183.234 102.966 183.419 102.981 183.549 102.944C183.679 102.907 183.82 102.811 183.883 102.688C184.032 102.406 183.943 102.102 183.683 101.927C183.219 101.612 182.759 101.3 182.295 100.985C182.18 100.907 181.994 100.892 181.864 100.929C181.735 100.966 181.594 101.063 181.531 101.185C181.382 101.467 181.471 101.772 181.731 101.946Z" fill="#E0E0E0"/>
<path d="M164.773 96.4056C164.535 99.07 164.205 101.723 163.782 104.362C163.734 104.662 163.86 104.955 164.171 105.048C164.435 105.122 164.81 104.955 164.858 104.659C165.296 101.92 165.641 99.1665 165.89 96.4056C165.953 95.6932 164.839 95.6969 164.776 96.4056H164.773Z" fill="#E0E0E0"/>
<path d="M165.567 118.852C167.04 120.17 168.647 121.335 170.357 122.318C170.981 122.675 171.541 121.713 170.918 121.357C169.285 120.418 167.756 119.32 166.353 118.066C166.131 117.865 165.785 117.843 165.567 118.066C165.362 118.27 165.34 118.652 165.567 118.852Z" fill="#E0E0E0"/>
<path d="M115.838 71.1905C115.838 71.1905 124.065 81.2914 124.974 82.7201C125.879 84.1487 130.548 92.7022 130.548 92.7022L126.985 95.8861C126.985 95.8861 121.089 86.583 120.28 85.737C119.471 84.8909 119.018 84.3603 119.018 84.3603L111.147 76.3189L115.845 71.1868L115.838 71.1905Z" fill="#FBBD9D"/>
<path d="M114.866 80.3044C114.539 80.412 108.969 74.4301 108.969 74.4301C108.969 74.4301 102.75 89.3959 102.783 90.5796C102.82 91.7634 94.9089 88.6203 93.8216 88.0563C92.7344 87.4885 86.7451 84.928 86.233 83.0429C85.7209 81.1616 88.107 80.0038 88.7712 78.7718C89.4317 77.5398 90.1219 73.9663 90.1219 73.9663C90.1219 73.9663 86.1885 77.6251 85.669 77.6251C85.6207 77.6251 85.5391 77.5843 85.4315 77.5101C84.5075 76.8681 81.6538 73.7399 80.8115 72.7528C80.7039 72.6267 80.6259 72.5339 80.5925 72.4857C80.2697 72.0329 87.0716 62.96 88.3259 62.1844C89.5839 61.4051 95.6548 60.1397 95.6548 60.1397L100.29 60.6296C100.29 60.6296 100.805 63.6094 102.587 64.5816C104.364 65.5538 107.125 63.0936 107.125 63.0936C107.125 63.0936 108.839 64.1957 110.851 65.3609C112.858 66.5261 118.172 72.8456 118.625 74.0442C119.078 75.2428 115.189 80.1967 114.866 80.3081V80.3044Z" fill="white"/>
<path d="M69.5603 116.04C69.6976 117.628 74.5031 122.782 86.8676 125.487C99.2321 128.196 105.362 128.241 106.331 125.495C106.683 124.493 106.784 122.407 107.233 119.361C108.019 114.058 108.483 106.343 107.014 98.6246C105.856 92.5315 101.258 88.5534 96.9573 86.0969C92.6825 83.6514 88.7045 82.72 88.7045 82.72C88.7045 82.72 85.977 84.0522 81.8246 90.1194C77.6685 96.1866 69.4267 114.448 69.5603 116.04Z" fill="#13337E"/>
<path d="M110.791 69.9548C110.791 69.9548 109.923 63.9025 109.53 63.5908C109.136 63.2791 107.121 62.5406 107.121 62.5406C107.121 62.5406 108.587 67.4871 108.305 68.0809C108.023 68.6746 108.487 69.042 104.795 68.2442C101.102 67.4463 98.568 66.9676 98.5346 66.4481C98.5012 65.9286 99.0912 62.01 98.7683 60.6741C98.4455 59.3382 98.0262 59.9579 97.7108 59.854C97.3953 59.7501 95.5622 59.9282 95.5622 59.9282C95.5622 59.9282 96.4491 62.0656 95.6698 66.3257C94.8905 70.5857 93.6771 74.085 93.0759 74.1258C92.4748 74.1666 90.9608 74.1481 90.3707 73.9811C89.7807 73.8141 89.5098 73.6657 89.3057 73.9291C89.1016 74.1926 88.7009 75.2279 88.8493 75.3096C88.9977 75.3912 90.9979 76.2595 91.2242 76.4525C91.4506 76.6455 90.1926 81.091 89.5024 81.7627C88.8122 82.4343 88.0663 83.9855 87.6062 84.4939C87.146 85.0022 77.895 100.321 76.3884 103.701C74.8818 107.082 75.0302 108.291 76.0841 109.356C77.1379 110.425 78.4442 110.136 78.4442 110.136C78.4442 110.136 79.2717 112.247 80.8673 112.614C82.463 112.982 82.7932 112.692 82.7932 112.692C82.7932 112.692 83.6319 114.767 85.298 115.279C86.9642 115.787 87.699 114.989 87.699 114.989C87.699 114.989 89.2315 116.733 90.7715 116.923C92.3115 117.112 92.9015 116.266 92.9015 116.266C92.9015 116.266 94.8683 117.876 96.4565 117.68C98.0447 117.483 98.5902 116.303 98.5902 116.303C98.5902 116.303 100.691 117.635 101.796 116.882C102.902 116.129 102.965 115.349 102.965 115.349C102.965 115.349 104.891 116.143 106.116 115.75C107.34 115.353 107.83 113.516 107.83 113.516C107.83 113.516 109.886 114.036 110.632 112.6C111.378 111.164 109.938 104.874 108.81 100.484C107.682 96.0939 106.851 91.8635 107.032 90.4237C107.214 88.9839 106.969 88.483 106.658 87.4811C106.346 86.4791 106.453 85.2546 106.528 85.0393C106.602 84.8241 107.685 81.7627 108.027 81.5549C108.368 81.3471 110.636 78.9759 111.415 77.5546C112.198 76.1334 112.365 74.7901 111.56 73.2055C110.754 71.621 110.795 69.9548 110.795 69.9548H110.791Z" fill="#F6A703"/>
<path d="M109.752 78.9684C109.752 78.9684 104.824 80.9426 101.106 80.8535C97.3879 80.7645 90.7232 80.3674 91.0386 80.4713C91.3541 80.5752 103.574 83.8853 104.149 83.8964C104.724 83.9076 108.595 81.7664 109.752 78.9684Z" fill="#E3A117"/>
<path d="M87.2016 89.459C87.4614 89.1102 85.0605 99.3075 84.5187 102.907C83.9769 106.507 84.5372 106.93 83.7765 107.638C83.0158 108.347 80.3069 110.362 80.3069 110.362C80.3069 110.362 83.732 94.1309 87.2016 89.459Z" fill="#E3A117"/>
<path d="M99.3135 101.909L101.329 114.804C101.329 114.804 100.323 116.392 100.093 116.136C99.8627 115.88 99.1428 105.809 99.3172 101.909H99.3135Z" fill="#E3A117"/>
<path d="M89.9402 81.8517C89.9402 81.8517 93.8662 85.6368 93.5582 86.0969C93.2502 86.5571 90.2445 89.1621 90.2445 89.1621L89.9402 81.8517Z" fill="#E3A117"/>
<path d="M104.72 94.2199C104.72 94.2199 103.507 98.2573 98.7124 97.337C93.9218 96.4168 92.9606 94.001 92.8605 92.1679C92.7603 90.3347 93.3503 88.4496 93.3503 88.4496L104.717 94.2199H104.72Z" fill="#E3A117"/>
<path d="M106.279 84.3045L106.119 84.2526C106.082 84.2415 106.045 84.2377 106.008 84.2489C105.971 84.2489 105.937 84.26 105.904 84.2823C105.871 84.3008 105.845 84.3231 105.826 84.3528C105.8 84.3788 105.785 84.4122 105.778 84.4493L105.767 84.5235C105.767 84.5754 105.778 84.62 105.804 84.6645L105.848 84.7202C105.882 84.7536 105.923 84.7795 105.971 84.7907L106.13 84.8426C106.167 84.8537 106.205 84.8575 106.242 84.8463C106.279 84.8463 106.312 84.8352 106.346 84.8129C106.379 84.7944 106.405 84.7721 106.424 84.7424C106.45 84.7164 106.464 84.683 106.472 84.6459L106.483 84.5717C106.483 84.5198 106.472 84.4752 106.446 84.4307L106.401 84.375C106.368 84.3416 106.327 84.3157 106.279 84.3045Z" fill="#F5BB42"/>
<path d="M103.963 84.1895C99.5326 83.6106 95.1873 82.4529 91.0497 80.7607C90.7194 80.6271 90.5747 81.1652 90.9013 81.2988C95.0908 83.0095 99.4807 84.1598 103.963 84.7462C104.316 84.7907 104.316 84.2341 103.963 84.1895Z" fill="#F5BB42"/>
<path d="M105.693 85.1098L104.72 85.5699C104.587 85.633 104.542 85.8334 104.62 85.9521C104.709 86.0894 104.861 86.1191 105.002 86.0523L105.975 85.5922C106.108 85.5291 106.153 85.3287 106.075 85.21C105.986 85.0727 105.834 85.043 105.693 85.1098Z" fill="#F5BB42"/>
<path d="M104.119 85.6516C103.11 85.518 102.097 85.3844 101.088 85.2508C100.939 85.2323 100.809 85.3918 100.809 85.5292C100.809 85.6961 100.939 85.7889 101.088 85.8075C102.097 85.9411 103.11 86.0746 104.119 86.2082C104.268 86.2268 104.398 86.0672 104.398 85.9299C104.398 85.7629 104.268 85.6702 104.119 85.6516Z" fill="#F5BB42"/>
<path d="M89.5653 80.809C89.877 81.7033 90.6303 82.3972 91.2686 83.0615C91.9885 83.8111 92.7418 84.531 93.4913 85.2509C93.7511 85.4995 94.1444 85.1061 93.8847 84.8575C93.1759 84.1747 92.4634 83.4919 91.7807 82.7869C91.4467 82.4455 91.1201 82.0967 90.8047 81.7367C90.519 81.4139 90.2481 81.0688 90.1071 80.6569C89.9883 80.3192 89.4503 80.4639 89.569 80.8053L89.5653 80.809Z" fill="#F5BB42"/>
<path d="M105.27 76.3671C104.349 76.8421 103.336 77.113 102.301 77.1538C101.945 77.1687 101.941 77.7253 102.301 77.7105C103.436 77.6659 104.542 77.3691 105.548 76.8458C105.867 76.6826 105.585 76.2002 105.266 76.3634L105.27 76.3671Z" fill="#F5BB42"/>
<path d="M103.592 75.4913C103.533 75.5025 103.47 75.5099 103.411 75.521C103.381 75.5247 103.355 75.5284 103.325 75.5321C103.307 75.5321 103.307 75.5321 103.325 75.5321C103.31 75.5321 103.296 75.5322 103.284 75.5359C103.166 75.5507 103.047 75.5618 102.932 75.573C102.694 75.5915 102.457 75.6027 102.219 75.6027C102.075 75.6027 101.934 75.7288 101.941 75.881C101.948 76.0331 102.064 76.1593 102.219 76.1593C102.728 76.1593 103.236 76.111 103.741 76.0257C103.886 75.9997 103.978 75.8179 103.934 75.6843C103.882 75.5284 103.745 75.4654 103.592 75.4913Z" fill="#F5BB42"/>
<path d="M107.57 69.2127C105.507 68.7822 103.44 68.348 101.377 67.9176C101.028 67.8434 100.88 68.3814 101.229 68.4557C103.292 68.8861 105.359 69.3203 107.422 69.7507C107.771 69.825 107.919 69.2869 107.57 69.2127Z" fill="#F5BB42"/>
<path d="M89.8289 83.8444L89.7584 84.0596C89.7472 84.0968 89.7435 84.1339 89.7546 84.171C89.7546 84.2081 89.7658 84.2415 89.788 84.2749C89.8066 84.3083 89.8289 84.3342 89.8585 84.3528C89.8845 84.3788 89.9179 84.3936 89.955 84.401L90.0292 84.4122C90.0812 84.4122 90.1257 84.401 90.1703 84.3751L90.2259 84.3305C90.2593 84.2971 90.2853 84.2563 90.2964 84.2081L90.3669 83.9928C90.3781 83.9557 90.3818 83.9186 90.3706 83.8815C90.3706 83.8444 90.3595 83.811 90.3372 83.7776C90.3187 83.7442 90.2964 83.7182 90.2667 83.6997C90.2408 83.6737 90.2074 83.6589 90.1703 83.6515L90.096 83.6403C90.0441 83.6403 89.9996 83.6515 89.955 83.6774L89.8994 83.722C89.866 83.7554 89.84 83.7962 89.8289 83.8444Z" fill="#F5BB42"/>
<path d="M87.6543 87.2102C83.8878 93.0399 82.1734 99.853 80.5258 106.518C80.4405 106.866 80.9748 107.015 81.0639 106.666C82.7003 100.05 84.3962 93.2848 88.1367 87.4922C88.3334 87.1917 87.851 86.9096 87.6543 87.2102Z" fill="#F5BB42"/>
<path d="M109.348 109.813L108.988 110.169C108.936 110.221 108.906 110.295 108.906 110.366C108.906 110.403 108.914 110.44 108.929 110.473C108.94 110.507 108.958 110.536 108.988 110.562C109.04 110.611 109.11 110.648 109.185 110.644C109.259 110.64 109.329 110.614 109.381 110.562L109.741 110.206C109.793 110.154 109.823 110.08 109.823 110.009C109.823 109.972 109.815 109.935 109.801 109.902C109.789 109.868 109.771 109.839 109.741 109.813C109.689 109.765 109.619 109.727 109.545 109.731C109.47 109.735 109.4 109.761 109.348 109.813Z" fill="#F5BB42"/>
<path d="M106.765 111.215C105.032 111.794 103.214 112.036 101.388 111.921C101.032 111.898 101.032 112.455 101.388 112.477C103.258 112.596 105.136 112.347 106.913 111.754C107.251 111.639 107.106 111.104 106.765 111.215Z" fill="#F5BB42"/>
<path d="M98.7571 109.817C98.8907 111.609 98.9278 113.409 98.8721 115.205C98.861 115.565 99.4176 115.561 99.4288 115.205C99.4844 113.409 99.4473 111.609 99.3137 109.817C99.2878 109.46 98.7311 109.46 98.7571 109.817Z" fill="#F5BB42"/>
<path d="M97.6588 113.609C97.5178 114.036 97.4993 114.492 97.5883 114.934C97.618 115.078 97.7961 115.171 97.9297 115.127C98.0819 115.078 98.1561 114.937 98.1227 114.785C98.119 114.759 98.1116 114.737 98.1078 114.711C98.1078 114.7 98.1078 114.689 98.1041 114.678C98.1004 114.644 98.1004 114.648 98.1041 114.689C98.0856 114.659 98.093 114.592 98.093 114.559C98.0856 114.462 98.0856 114.362 98.093 114.266C98.093 114.221 98.093 114.169 98.1041 114.125C98.0893 114.195 98.1041 114.125 98.1041 114.114C98.1078 114.088 98.1116 114.065 98.119 114.039C98.1375 113.943 98.1635 113.85 98.1932 113.757C98.2377 113.62 98.1412 113.446 98.0002 113.416C97.8481 113.383 97.7071 113.461 97.6588 113.609Z" fill="#F5BB42"/>
<path d="M85.2386 109.687C84.7747 110.258 84.3071 110.826 83.8433 111.397C83.7505 111.509 83.7245 111.683 83.8433 111.791C83.9435 111.883 84.1402 111.909 84.2366 111.791C84.7005 111.219 85.1681 110.651 85.6319 110.08C85.7247 109.969 85.7507 109.794 85.6319 109.687C85.5317 109.594 85.335 109.568 85.2386 109.687Z" fill="#F5BB42"/>
<path d="M105.114 88.4013C105.114 88.4013 101.414 88.9023 98.1486 88.0265C94.8831 87.1508 94.1113 86.5348 93.7328 87.0877C93.3543 87.6406 91.8625 93.3479 97.5994 95.1996C103.333 97.0513 104.672 95.1291 105.444 93.1475C106.216 91.1659 105.756 88.3345 105.118 88.4013H105.114Z" fill="white"/>
<path d="M91.751 65.2495C92.7418 66.3924 93.0201 68.1328 92.649 69.5763C92.2111 71.2796 90.9161 72.4337 89.5913 73.4875C89.313 73.7102 89.7063 74.1035 89.9846 73.8809C91.4504 72.712 92.8568 71.3835 93.2427 69.465C93.5619 67.8805 93.2131 66.0919 92.1443 64.8562C91.9106 64.5853 91.5172 64.9786 91.751 65.2495Z" fill="#091F4C"/>
<path d="M80.8709 91.4368C81.1084 92.3571 81.1492 93.385 81.1492 93.385L76.6257 95.8861C76.6257 95.8861 73.8574 86.2082 73.6496 84.4864C73.4455 82.7646 73.6459 81.8703 73.735 81.6625C73.8166 81.4732 79.8319 73.9699 80.8041 72.7528C81.6465 73.7436 84.5001 76.8681 85.4241 77.5101L79.8022 83.2062C79.8022 83.2062 79.8467 84.3862 80.0063 86.7648C80.1695 89.1435 80.6297 90.5165 80.8672 91.4368H80.8709Z" fill="#FBBD9D"/>
<path d="M78.2326 81.2617C78.7967 81.9779 79.1603 82.8351 79.3125 83.7294C79.3384 83.8779 79.5203 83.9595 79.6539 83.9224C79.8097 83.8779 79.8728 83.7294 79.8468 83.581C79.6798 82.5865 79.2494 81.6588 78.6223 80.8684C78.5295 80.7497 78.3254 80.7719 78.2289 80.8684C78.1139 80.9834 78.1361 81.143 78.2289 81.2617H78.2326Z" fill="#BA3C5D"/>
<path d="M145.792 120.726L138.575 120.593L66.4361 119.257L62.4247 119.183C62.4247 119.183 63.037 115.861 70.1989 108.729C77.357 101.601 78.8822 98.5468 82.0178 98.0198C85.1535 97.4929 86.9569 100.695 89.5471 101.211C92.1372 101.731 106.569 102.428 115.723 108.774C124.882 115.119 123.932 115.294 130.066 115.813C136.2 116.333 145.788 120.726 145.788 120.726H145.792Z" fill="url(#paint2_linear_28_3920)"/>
<path d="M145.792 120.726L138.574 120.593C135.531 118.745 132.01 116.938 129.895 116.938C125.575 116.938 123.245 116.678 120.132 114.347C117.022 112.017 111.923 107.783 105.444 107.783C98.965 107.783 94.7309 105.883 88.942 103.375C83.1532 100.87 82.9825 103.204 75.4643 109.334C70.8926 113.067 68.0427 116.607 66.4322 119.257L62.4208 119.183C62.4208 119.183 63.0331 115.861 70.195 108.729C77.3531 101.601 78.8783 98.5468 82.0139 98.0198C85.1496 97.4929 86.953 100.695 89.5432 101.211C92.1333 101.731 106.565 102.428 115.719 108.774C124.878 115.119 123.928 115.294 130.062 115.813C136.196 116.333 145.784 120.726 145.784 120.726H145.792Z" fill="#BDDEF4"/>
<path d="M75.7723 94.5576C75.7723 94.5576 76.7556 93.2328 78.8374 92.4424C80.9192 91.652 81.5389 91.3737 81.6762 92.1827C81.8135 92.9916 82.0769 95.066 82.14 95.3591C82.2031 95.6523 85.413 97.1737 85.3796 97.9196C85.3462 98.6655 84.7636 98.3723 83.988 98.2424C83.2125 98.1126 82.3998 97.7563 82.3998 97.7563C82.3998 97.7563 82.5705 99.6043 82.6967 100.168C82.8228 100.732 83.9546 102.97 83.7283 103.456C83.5019 103.942 82.3664 103.716 82.3664 103.716C82.3664 103.716 82.3441 104.673 81.6762 104.77C81.0082 104.866 80.7782 104.577 80.7782 104.577C80.7782 104.577 80.3885 105.148 79.8393 105.13C79.2901 105.111 78.689 103.233 78.689 103.233C78.689 103.233 78.3476 103.475 78.0581 103.085C77.7687 102.695 76.6332 100.866 76.6183 100.688C76.6035 100.51 76.8447 96.9956 76.4884 96.2015C76.1322 95.4074 75.4346 95.0623 75.7685 94.5613L75.7723 94.5576Z" fill="white"/>
<path d="M77.7986 101.252C77.8208 102.024 78.1622 102.721 78.5296 103.386C78.6038 103.516 78.782 103.56 78.9118 103.486C79.0417 103.412 79.0862 103.237 79.012 103.104C78.6929 102.528 78.3775 101.912 78.3589 101.252C78.3552 101.1 78.2327 100.974 78.0806 100.974C77.9285 100.974 77.7986 101.1 77.8023 101.252H77.7986Z" fill="white"/>
<path d="M79.1864 101.749C79.32 102.822 79.8952 103.727 80.4889 104.603C80.5743 104.729 80.7338 104.781 80.8711 104.703C80.9936 104.633 81.0567 104.447 80.9713 104.321C80.4444 103.542 79.8655 102.707 79.743 101.746C79.7245 101.597 79.628 101.467 79.4647 101.467C79.3274 101.467 79.1679 101.597 79.1864 101.746V101.749Z" fill="white"/>
<path d="M80.8897 100.432C81.0158 101.697 81.4574 102.911 82.1959 103.95C82.4037 104.239 82.8861 103.961 82.6783 103.668C81.9992 102.714 81.565 101.601 81.4463 100.432C81.4314 100.283 81.3275 100.154 81.168 100.154C81.0307 100.154 80.8748 100.28 80.8897 100.432Z" fill="white"/>
<path d="M120.176 84.286C120.236 84.0819 120.406 83.9261 120.562 83.7925C120.744 83.6329 120.944 83.4993 121.145 83.3695C121.601 83.0689 122.065 82.7794 122.525 82.4863C122.826 82.297 122.547 81.8146 122.243 82.0039C121.742 82.3193 121.241 82.631 120.751 82.9613C120.313 83.2544 119.794 83.607 119.638 84.1413C119.538 84.4864 120.076 84.6348 120.176 84.2897V84.286Z" fill="#BA3C5D"/>
<path d="M126.522 95.5966C126.522 95.5966 130.511 92.2791 130.63 92.3571C130.748 92.435 133.479 95.0882 134.3 95.5558C135.12 96.0234 136.485 96.8063 136.289 97.0772C136.092 97.3481 135.235 97.311 134.689 97.311C134.144 97.311 133.517 97.0772 133.517 97.0772L127.538 96.3907L126.518 95.5966H126.522Z" fill="white"/>
<path d="M203.068 133.863H114.257C112.06 133.863 110.279 135.644 110.279 137.841V162.703C110.279 164.9 112.06 166.681 114.257 166.681H203.068C205.265 166.681 207.046 164.9 207.046 162.703V137.841C207.046 135.644 205.265 133.863 203.068 133.863Z" fill="#E0E0E0"/>
<path d="M142.593 137.054V163.49C142.593 165.252 141.346 166.681 139.806 166.681H48.6126C47.0726 166.681 45.8258 165.252 45.8258 163.49V137.054C45.8258 135.291 47.0726 133.863 48.6126 133.863H139.806C141.346 133.863 142.593 135.291 142.593 137.054Z" fill="#EBECFE"/>
<path d="M207.047 148.19H142.593V154.829H207.047V148.19Z" fill="#B2B2B2"/>
<path d="M142.593 148.19H45.8258V154.829H142.593V148.19Z" fill="#E0E0E0"/>
<path d="M49.2103 166.681H56.5762V176.585C56.5762 177.491 55.8415 178.229 54.9323 178.229H50.8504C49.945 178.229 49.2065 177.495 49.2065 176.585V166.681H49.2103Z" fill="#83807C"/>
<path d="M129.843 166.681H137.209V176.585C137.209 177.491 136.474 178.229 135.565 178.229H131.483C130.577 178.229 129.839 177.495 129.839 176.585V166.681H129.843Z" fill="#83807C"/>
<path d="M114.662 166.681H122.028V176.585C122.028 177.491 121.293 178.229 120.384 178.229H116.302C115.396 178.229 114.658 177.495 114.658 176.585V166.681H114.662Z" fill="#83807C"/>
<path d="M195.294 166.681H202.66V176.585C202.66 177.491 201.925 178.229 201.016 178.229H196.934C196.029 178.229 195.29 177.495 195.29 176.585V166.681H195.294Z" fill="#83807C"/>
<path d="M209.406 145.867C209.054 148.298 208.965 148.602 206.842 147.993C204.72 147.385 204.278 150.524 200.734 150.628C197.194 150.728 196.311 147.893 192.24 148.906C188.169 149.919 187.286 152.654 181.798 152.246C176.31 151.842 175.957 148.502 171.092 149.715C166.227 150.932 163.303 155.794 158.086 151.842C152.865 147.893 146.382 148.22 144.79 149.663C144.404 150.016 143.947 150.535 143.417 151.111C143.613 146.442 142.003 128.445 139.324 123.84C138.789 122.923 138.088 122.114 137.22 121.402C135.984 120.396 134.403 119.583 132.477 118.945C143.346 119.086 158.334 119.134 170.124 118.619C187.72 117.854 198.834 117.947 203.944 121.402C204.927 122.066 205.684 122.849 206.23 123.78C208.479 127.643 209.766 143.433 209.414 145.863L209.406 145.867Z" fill="url(#paint3_linear_28_3920)"/>
<path d="M143.413 151.114C141.758 152.899 139.357 155.2 135.891 154.454C131.312 153.467 129.457 148.758 124.677 152.48C119.898 156.202 115.252 156.124 107.815 151.797C100.383 147.467 101.444 151.263 97.529 154.153C93.6141 157.041 86.6451 157.115 82.2664 153.771C77.9098 150.446 74.4736 152.606 69.4083 155.623C69.3787 155.638 69.3527 155.653 69.3267 155.671C66.6215 157.282 64.1761 157.211 62.009 156.265C60.083 155.426 58.3798 153.901 56.914 152.254C53.7932 148.762 52.2681 149.519 49.2808 150.736C47.9412 151.281 46.854 151.519 46.0561 151.619C45.2472 151.719 44.5421 150.999 44.5421 150.068V129.785C44.5421 126.445 45.8298 123.446 47.8707 121.413C49.5777 119.71 51.8042 118.678 54.2459 118.678H118.039C118.039 118.678 124.006 118.845 132.47 118.956C134.396 119.595 135.977 120.407 137.213 121.413C138.085 122.125 138.782 122.934 139.317 123.851C141.996 128.456 143.606 146.454 143.41 151.122L143.413 151.114Z" fill="url(#paint4_linear_28_3920)"/>
<path d="M50.7316 144.709C53.4331 144.494 55.7598 146.234 57.8304 147.741C59.8937 149.24 62.0942 150.795 64.7289 150.932C65.445 150.969 65.4413 149.856 64.7289 149.819C62.1016 149.686 59.9122 147.875 57.8713 146.401C55.8303 144.928 53.4034 143.385 50.7316 143.596C50.0229 143.652 50.0154 144.765 50.7316 144.709Z" fill="white"/>
<path d="M68.9367 150.658C70.0351 150.465 71.1076 150.342 72.2394 150.272C72.5288 150.253 72.8108 150.027 72.796 149.715C72.7849 149.43 72.5511 149.14 72.2394 149.159C71.0334 149.233 69.8311 149.378 68.6399 149.585C68.3504 149.634 68.1649 150.005 68.2502 150.272C68.3504 150.58 68.625 150.713 68.9367 150.662V150.658Z" fill="white"/>
<path d="M76.3992 149.259H81.4422C82.1584 149.259 82.1584 148.146 81.4422 148.146H76.3992C75.683 148.146 75.683 149.259 76.3992 149.259Z" fill="white"/>
<path d="M65.1852 144.416C66.2911 144.594 67.4043 144.661 68.525 144.59C68.8144 144.572 69.0964 144.346 69.0816 144.034C69.0705 143.748 68.8367 143.459 68.525 143.477C68.0018 143.511 67.4785 143.514 66.959 143.488C66.7067 143.477 66.4581 143.459 66.2094 143.433C65.9126 143.403 65.7604 143.381 65.4858 143.34C65.2112 143.299 64.8735 143.414 64.7993 143.73C64.7399 143.997 64.881 144.364 65.189 144.416H65.1852Z" fill="white"/>
<path d="M73.568 144.802C73.8351 144.802 74.0986 144.802 74.3658 144.802C74.5068 144.802 74.6589 144.739 74.7591 144.639C74.8148 144.587 74.8519 144.527 74.8742 144.461C74.9076 144.394 74.9261 144.323 74.9224 144.245C74.915 144.101 74.8705 143.952 74.7591 143.852C74.6478 143.752 74.5179 143.689 74.3658 143.689C74.0986 143.689 73.8351 143.689 73.568 143.689C73.4269 143.689 73.2748 143.752 73.1746 143.852C73.1189 143.904 73.0818 143.963 73.0596 144.03C73.0262 144.097 73.0076 144.168 73.0113 144.245C73.0188 144.39 73.0633 144.539 73.1746 144.639C73.2859 144.739 73.4158 144.802 73.568 144.802Z" fill="white"/>
<path d="M110.131 148.509C113.129 149.734 116.409 150.892 119.601 149.66C122.325 148.606 124.67 146.398 127.787 146.902C129.572 147.192 131.19 148.094 132.663 149.099C133.257 149.504 133.813 148.543 133.223 148.138C130.67 146.387 127.546 145.043 124.447 146.093C123.063 146.561 121.824 147.348 120.536 148.016C119.104 148.758 117.653 149.188 116.024 149.07C114.079 148.929 112.213 148.168 110.428 147.437C109.763 147.166 109.478 148.242 110.131 148.509Z" fill="white"/>
<path d="M126.488 145.106H129.141C129.431 145.106 129.713 144.85 129.698 144.55C129.683 144.249 129.453 143.993 129.141 143.993H126.488C126.199 143.993 125.917 144.249 125.931 144.55C125.946 144.85 126.176 145.106 126.488 145.106Z" fill="white"/>
<path d="M134.86 123.558C135.157 123.962 135.45 124.367 135.747 124.771C135.836 124.894 135.928 124.986 136.081 125.027C136.214 125.064 136.392 125.046 136.511 124.971C136.63 124.897 136.734 124.782 136.767 124.637C136.8 124.493 136.797 124.326 136.711 124.207C136.414 123.803 136.121 123.398 135.824 122.994C135.735 122.871 135.643 122.778 135.491 122.738C135.357 122.7 135.179 122.719 135.06 122.793C134.941 122.867 134.837 122.982 134.804 123.127C134.771 123.272 134.774 123.439 134.86 123.558Z" fill="white"/>
<path d="M136.511 125.843C138.775 131.614 140.27 137.681 140.953 143.845C141.031 144.55 142.144 144.557 142.066 143.845C141.368 137.581 139.888 131.417 137.583 125.547C137.324 124.886 136.247 125.176 136.511 125.843Z" fill="white"/>
<path d="M141.064 147.689V149.411C141.064 149.7 141.32 149.982 141.621 149.968C141.922 149.953 142.178 149.723 142.178 149.411V147.689C142.178 147.4 141.922 147.118 141.621 147.132C141.32 147.147 141.064 147.377 141.064 147.689Z" fill="white"/>
<path d="M150.642 146.32C151.224 146.613 151.803 146.902 152.386 147.196C152.646 147.325 153.002 147.274 153.147 146.995C153.28 146.743 153.225 146.372 152.946 146.235C152.364 145.941 151.785 145.652 151.202 145.359C150.942 145.229 150.586 145.281 150.441 145.559C150.308 145.811 150.363 146.183 150.642 146.32Z" fill="white"/>
<path d="M155.937 147.767C156.382 148.068 156.824 148.368 157.269 148.669C157.384 148.747 157.57 148.762 157.7 148.724C157.83 148.687 157.971 148.591 158.034 148.468C158.101 148.339 158.138 148.183 158.089 148.038C158.041 147.893 157.96 147.789 157.833 147.704C157.388 147.403 156.947 147.103 156.501 146.802C156.386 146.724 156.201 146.71 156.071 146.747C155.941 146.784 155.8 146.88 155.737 147.003C155.67 147.133 155.633 147.288 155.681 147.433C155.729 147.578 155.811 147.682 155.937 147.767Z" fill="white"/>
<path d="M155.481 123.149L155.748 123.554C155.781 123.617 155.83 123.673 155.893 123.71C155.945 123.758 156.008 123.791 156.082 123.81C156.156 123.832 156.23 123.836 156.305 123.821C156.379 123.821 156.449 123.795 156.512 123.754L156.624 123.669C156.694 123.598 156.739 123.517 156.768 123.424L156.787 123.276C156.787 123.175 156.761 123.083 156.713 122.994L156.446 122.589C156.412 122.526 156.364 122.47 156.301 122.433C156.249 122.385 156.186 122.352 156.112 122.333C156.037 122.311 155.963 122.307 155.889 122.322C155.815 122.322 155.744 122.348 155.681 122.389L155.57 122.474C155.499 122.545 155.455 122.626 155.425 122.719L155.407 122.867C155.407 122.968 155.433 123.06 155.481 123.149Z" fill="white"/>
<path d="M157.974 128.204C160.327 132.801 161.674 137.882 162.001 143.032C162.045 143.745 163.158 143.748 163.114 143.032C162.776 137.681 161.385 132.419 158.939 127.643C158.613 127.005 157.652 127.569 157.978 128.204H157.974Z" fill="white"/>
<path d="M162.91 136.223C163.058 136.527 163.203 136.831 163.351 137.136C163.411 137.254 163.559 137.358 163.685 137.392C163.819 137.429 163.997 137.41 164.116 137.336C164.235 137.262 164.338 137.147 164.372 137.002L164.39 136.854C164.39 136.753 164.364 136.661 164.316 136.571C164.168 136.267 164.023 135.963 163.875 135.659C163.815 135.54 163.667 135.436 163.541 135.403C163.407 135.365 163.229 135.384 163.11 135.458C162.991 135.532 162.888 135.647 162.854 135.792L162.836 135.941C162.836 136.041 162.862 136.134 162.91 136.223Z" fill="white"/>
<path d="M186.882 124.378C187.06 124.682 187.238 124.983 187.416 125.287C187.487 125.409 187.613 125.506 187.75 125.543C187.887 125.58 188.062 125.562 188.181 125.487C188.299 125.413 188.403 125.298 188.437 125.153C188.47 125.009 188.459 124.857 188.381 124.723C188.203 124.419 188.025 124.118 187.847 123.814C187.776 123.691 187.65 123.595 187.513 123.558C187.375 123.521 187.201 123.539 187.082 123.613C186.963 123.688 186.859 123.803 186.826 123.947C186.793 124.092 186.804 124.244 186.882 124.378Z" fill="white"/>
<path d="M188.86 129.001C190.192 133.276 190.767 137.744 190.596 142.219C190.57 142.936 191.684 142.936 191.71 142.219C191.884 137.655 191.29 133.068 189.932 128.705C189.721 128.022 188.644 128.315 188.86 129.001Z" fill="white"/>
<path d="M188.143 137.663C188.203 138.304 188.262 138.946 188.322 139.588C188.336 139.741 188.374 139.87 188.485 139.982C188.581 140.078 188.741 140.152 188.878 140.145C189.157 140.134 189.465 139.9 189.435 139.588C189.375 138.946 189.316 138.304 189.257 137.663C189.242 137.51 189.205 137.38 189.093 137.269C188.997 137.173 188.837 137.098 188.7 137.106C188.422 137.117 188.114 137.351 188.143 137.663Z" fill="white"/>
<path d="M174.387 149.055C175.007 149.151 175.627 149.248 176.247 149.344C176.399 149.366 176.536 149.37 176.677 149.288C176.792 149.222 176.903 149.088 176.933 148.955C176.966 148.813 176.959 148.654 176.877 148.524C176.803 148.409 176.684 148.29 176.543 148.268C175.924 148.172 175.304 148.075 174.684 147.979C174.532 147.956 174.395 147.953 174.254 148.034C174.139 148.101 174.027 148.235 173.998 148.368C173.964 148.509 173.972 148.669 174.053 148.799C174.128 148.914 174.246 149.032 174.387 149.055Z" fill="white"/>
<path d="M203.937 121.405H137.212C135.977 120.4 134.396 119.587 132.47 118.949C143.339 119.09 158.327 119.138 170.116 118.622C187.713 117.858 198.827 117.951 203.937 121.405Z" fill="url(#paint5_linear_28_3920)"/>
<path d="M137.212 121.405H47.8669C49.5739 119.702 51.8004 118.671 54.2421 118.671H118.035C118.035 118.671 124.002 118.838 132.466 118.949C134.392 119.587 135.973 120.4 137.209 121.405H137.212Z" fill="#BDDEF4"/>
<path d="M191.142 29.3027H139.58C138.448 29.3027 137.531 30.2198 137.531 31.3511V61.3234C137.531 62.4547 138.448 63.3718 139.58 63.3718H191.142C192.273 63.3718 193.19 62.4547 193.19 61.3234V31.3511C193.19 30.2198 192.273 29.3027 191.142 29.3027Z" fill="#E0E0E0"/>
<path d="M190.529 33.0544V59.6127C190.529 60.2176 190.04 60.7112 189.435 60.7112H141.287C140.682 60.7112 140.188 60.2176 140.188 59.6127V33.0544C140.188 32.4495 140.682 31.956 141.287 31.956H189.435C190.04 31.956 190.529 32.4495 190.529 33.0544Z" fill="white"/>
<path d="M190.529 52.5287V59.6127C190.529 60.2176 190.04 60.7111 189.435 60.7111H141.287C140.682 60.7111 140.188 60.2176 140.188 59.6127V52.9147L150.553 46.6842C151.098 46.3576 151.796 46.4096 152.282 46.8215L158 51.6344C158.52 52.0723 159.273 52.1057 159.83 51.7086L175.471 40.5836C176.039 40.1791 176.814 40.2236 177.334 40.6912L190.526 52.5324L190.529 52.5287Z" fill="#BDDEF4"/>
<path d="M190.529 57.0858V59.6128C190.529 60.2177 190.04 60.7112 189.435 60.7112H141.287C140.682 60.7112 140.188 60.2177 140.188 59.6128V57.0858H190.529Z" fill="#FEDB71"/>
<path d="M169.682 60.7112H156.717L161.288 57.0858H169.296L169.682 60.7112Z" fill="#F6A703"/>
<path d="M159.384 46.7845C161.895 46.7845 163.93 44.7492 163.93 42.2387C163.93 39.7281 161.895 37.6929 159.384 37.6929C156.874 37.6929 154.839 39.7281 154.839 42.2387C154.839 44.7492 156.874 46.7845 159.384 46.7845Z" fill="#FFBA2E"/>
<path d="M44.5381 178.786H209.462C210.178 178.786 210.178 177.673 209.462 177.673H44.5381C43.8219 177.673 43.8219 178.786 44.5381 178.786Z" fill="#EBECFE"/>
</g>
<defs>
<linearGradient id="paint0_linear_28_3920" x1="122.748" y1="94.9985" x2="165.267" y2="149.632" gradientUnits="userSpaceOnUse">
<stop stop-color="#F0FEF9"/>
<stop offset="1" stop-color="#D4F4E7"/>
</linearGradient>
<linearGradient id="paint1_linear_28_3920" x1="163.155" y1="93.0169" x2="205.675" y2="147.651" gradientUnits="userSpaceOnUse">
<stop stop-color="#F0FEF9"/>
<stop offset="1" stop-color="#D4F4E7"/>
</linearGradient>
<linearGradient id="paint2_linear_28_3920" x1="104.108" y1="97.9615" x2="104.108" y2="120.726" gradientUnits="userSpaceOnUse">
<stop stop-color="#4DC893"/>
<stop offset="1" stop-color="#63B3D0"/>
</linearGradient>
<linearGradient id="paint3_linear_28_3920" x1="170.974" y1="118.229" x2="170.974" y2="153.362" gradientUnits="userSpaceOnUse">
<stop stop-color="#4DC893"/>
<stop offset="1" stop-color="#63B3D0"/>
</linearGradient>
<linearGradient id="paint4_linear_28_3920" x1="93.9839" y1="118.678" x2="93.9839" y2="156.937" gradientUnits="userSpaceOnUse">
<stop stop-color="#4DC893"/>
<stop offset="1" stop-color="#63B3D0"/>
</linearGradient>
<linearGradient id="paint5_linear_28_3920" x1="168.203" y1="118.233" x2="168.203" y2="121.405" gradientUnits="userSpaceOnUse">
<stop stop-color="#4DC893"/>
<stop offset="1" stop-color="#63B3D0"/>
</linearGradient>
<clipPath id="clip0_28_3920">
<rect width="166" height="156.786" fill="white" transform="translate(44 22)"/>
</clipPath>
</defs>
</svg>
