<svg width="256" height="193" viewBox="0 0 256 193" fill="none" xmlns="http://www.w3.org/2000/svg">
<path d="M1 16C1 7.16344 8.16344 0 17 0H240C248.837 0 256 7.16344 256 16V193H1V16Z" fill="#F6FFFF"/>
<mask id="mask0_28_3656" style="mask-type:luminance" maskUnits="userSpaceOnUse" x="0" y="14" width="256" height="164">
<path d="M220.47 171.899C184.777 181.566 159.279 160.884 126.56 168.32C93.8414 175.755 57.0855 188.616 25.0575 161.625C-8.03342 133.741 -10.753 74.3301 31.4352 42.9614C42.8907 34.4434 55.5409 30.3234 67.799 28.66C68.3401 20.8088 76.0752 14.7726 83.2802 14.7726C90.3779 14.7726 100.998 20.6264 101.688 28.3109C110.309 29.0945 111.252 30.4812 116.9 31.4417C125.821 32.9475 134.965 32.4644 143.679 30.027C186.19 18.1876 229.673 23.1164 242.19 49.3432C246.084 57.4998 245.631 65.8415 244.201 72.1557C242.636 79.0554 244 86.2884 247.895 92.1954C269.652 125.185 243.186 165.747 220.47 171.899Z" fill="white"/>
</mask>
<g mask="url(#mask0_28_3656)">
<path d="M143.679 30.0257C134.966 32.4633 125.822 32.9464 116.901 31.4405C98.7867 28.3609 61.1024 20.8997 31.4353 42.9615C-10.7529 74.3323 -8.03333 133.743 25.0569 161.628C57.0835 188.617 93.8408 175.757 126.559 168.323C159.278 160.889 184.777 181.57 220.47 171.903C243.186 165.75 269.655 125.189 247.896 92.1976C244.002 86.2912 242.636 79.0582 244.201 72.1579C245.632 65.8437 246.084 57.502 242.191 49.3454C229.673 23.1158 186.19 18.1863 143.679 30.0257Z" fill="#F2F2F2"/>
<path d="M207.863 79.5726L150.8 20.4817H256.305V79.6409C256.305 79.6409 207.863 80.0802 207.863 79.5726Z" fill="#D8D6D6"/>
<path d="M207.863 146.63V79.5727H261.532V165.803L238.552 160.223L207.863 146.63Z" fill="#E0E0E0"/>
<path d="M213.152 99.738V150.068L257.605 170.813V103.442L213.152 99.738Z" fill="#B2B2B2"/>
<path d="M136.343 151.195V182.897H169.567V167.426L159.929 167.173L136.343 151.195Z" fill="#D8D6D6"/>
<path d="M242.926 168.694H163.036V182.896H242.926V168.694Z" fill="#C4C4C4"/>
<path d="M134.567 146.63L161.705 164.89V169.963L134.314 151.195L134.567 146.63Z" fill="#C4C4C4"/>
<path d="M247.427 169.329L161.705 169.709V164.383H247.427V169.329Z" fill="#AAAAAA"/>
<path d="M134.567 146.63H209.131L247.899 164.383L161.705 164.89L134.567 146.63Z" fill="#D8D6D6"/>
<path d="M166.215 45.996H116.512V103.429H166.215V45.996Z" fill="#BABABA"/>
<path d="M168.496 45.996H118.794V103.429H168.496V45.996Z" fill="#A1E0C6"/>
<path d="M146.745 52.0814H121.914V55.6289H146.745V52.0814Z" fill="white"/>
<path d="M164.549 59.1763H121.914V60.9456H164.549V59.1763Z" fill="white"/>
<path d="M164.549 64.4973H121.914V66.2666H164.549V64.4973Z" fill="white"/>
<path d="M164.549 69.8175H121.914V71.5868H164.549V69.8175Z" fill="white"/>
<path d="M164.549 75.1384H121.914V76.9077H164.549V75.1384Z" fill="white"/>
<path d="M164.549 80.4593H121.914V82.2286H164.549V80.4593Z" fill="white"/>
<path d="M164.549 85.7802H121.914V87.5495H164.549V85.7802Z" fill="white"/>
<path d="M164.549 91.1011H121.914V92.8704H164.549V91.1011Z" fill="white"/>
<path d="M164.549 96.4221H121.914V98.1914H164.549V96.4221Z" fill="white"/>
<path d="M121.38 98.8479L101.598 89.2096H-5.77075V98.8472C-5.77075 98.8472 121.888 98.3403 121.38 98.8479Z" fill="#379A9F"/>
<path d="M121.38 98.7208H-1.20605V184.951H121.38V98.7208Z" fill="#CBF6FF"/>
<path d="M108.885 119.436H5.52075V139.778H108.885V119.436Z" fill="#379A9F"/>
<path d="M107.449 137.648V119.909H121.761V149.948L107.449 137.648Z" fill="#379A9F"/>
<path d="M-1.20605 114.968H121.521C121.994 114.968 122.447 115.156 122.782 115.49C123.116 115.825 123.304 116.278 123.304 116.751V118.832C123.304 119.304 123.116 119.758 122.782 120.092C122.447 120.426 121.994 120.614 121.521 120.614H-1.20605V114.969V114.968Z" fill="#51B2C5"/>
<path d="M6.76267 137.648H107.45L121.312 147.398H5.81653L6.76267 137.648Z" fill="#5EDEA9"/>
<path d="M-1.20605 147.224H121.809C122.205 147.224 122.586 147.381 122.866 147.662C123.146 147.942 123.304 148.322 123.304 148.719V151.375C123.304 151.571 123.265 151.765 123.19 151.947C123.115 152.128 123.005 152.293 122.866 152.431C122.727 152.57 122.562 152.68 122.381 152.756C122.2 152.831 122.005 152.869 121.809 152.869H-1.20605V147.225V147.224Z" fill="#51B2C5"/>
<path d="M93.9891 60.0439H4.46191V76.7827H93.9891V60.0439Z" fill="#379A9F"/>
<path d="M92.5599 73.6677V54.2701L108.661 55.6015V81.4656L92.5599 73.6677Z" fill="#51B2C5"/>
<path d="M108.915 81.275L92.5599 73.6676H3.55737V80.8309L108.915 81.275Z" fill="#51B2C5"/>
<path d="M110.816 22.3207H106.252V99.9122H110.816V22.3207Z" fill="#51B2C5"/>
<path d="M5.45927 22.3207H0.895264V99.9122H5.45927V22.3207Z" fill="#51B2C5"/>
<path d="M108.914 80.1335H2.79639V84.3177H108.914V80.1335Z" fill="#51B2C5"/>
<path d="M109.676 64.1563H3.55737L16.8696 29.167L109.676 28.3418V64.1563Z" fill="#CBF6FF"/>
<path d="M11.8171 62.0735L23.7371 61.0584C23.7371 61.0584 23.9906 67.3992 26.7805 71.7105L13.846 73.4866C13.846 73.4866 12.5775 70.1892 11.8171 62.0735Z" fill="white"/>
<path d="M29.7091 60.7175L41.599 62.04C41.599 62.04 40.6153 68.3091 42.5137 73.0808L29.4803 72.3075C29.4803 72.3075 28.8777 68.8263 29.7091 60.7175Z" fill="white"/>
<path d="M45.941 57.9276L57.8275 59.2502C57.8275 59.2502 56.8431 65.5193 58.7415 70.2909L45.7087 69.5176C45.7087 69.5176 45.109 66.0371 45.941 57.9276Z" fill="white"/>
<path d="M63.4442 61.9861L75.3307 63.3087C75.3307 63.3087 74.3463 69.5771 76.2447 74.3488L63.2119 73.5755C63.2119 73.5755 62.6087 70.0949 63.4442 61.9861Z" fill="white"/>
<path d="M198.226 157.941H161.959V159.843H198.226V157.941Z" fill="#353535"/>
<path d="M142.049 145.513H174.894L198.226 157.941L162.086 157.983L142.049 145.513Z" fill="#212323"/>
<path d="M142.049 145.513V147.035L162.022 159.843V157.941L142.049 145.513Z" fill="#515151"/>
<path d="M238.551 159.843H202.284L201.834 157.941H238.101L238.551 159.843Z" fill="#353535"/>
<path d="M178.98 145.513H211.824L238.101 157.941L201.97 157.983L178.98 145.513Z" fill="#212323"/>
<path d="M178.98 145.513L179.34 147.035L202.348 159.843L201.897 157.941L178.98 145.513Z" fill="#515151"/>
<path d="M202.665 146.655H198.1V148.811H202.665V146.655Z" fill="#515151"/>
<path d="M198.1 146.655H202.665L201.904 145.936H198.691L198.1 146.655Z" fill="#848484"/>
<path d="M195.479 145.006H190.914V147.162H195.479V145.006Z" fill="#515151"/>
<path d="M190.914 145.006H195.479L194.718 144.288H191.506L190.914 145.006Z" fill="#848484"/>
<path d="M208.963 145.006H204.398V147.162H208.963V145.006Z" fill="#515151"/>
<path d="M204.398 145.006H208.963L208.202 144.288H204.989L204.398 145.006Z" fill="#848484"/>
<path d="M164.634 151.299H160.974V153.027H164.634V151.299Z" fill="#515151"/>
<path d="M160.974 151.299H164.634L164.024 150.723H161.448L160.974 151.299Z" fill="#848484"/>
<path d="M173.35 151.299H169.69V153.027H173.35V151.299Z" fill="#515151"/>
<path d="M169.69 151.299H173.35L172.74 150.723H170.165L169.69 151.299Z" fill="#848484"/>
<path d="M216.022 146.655H212.091V148.811H216.022V146.655Z" fill="#515151"/>
<path d="M212.091 146.655H216.022L214.584 145.936H211.372L212.091 146.655Z" fill="#848484"/>
<path d="M211.372 145.935V147.585L212.091 148.811V146.655L211.372 145.935Z" fill="#424242"/>
<path d="M184.404 148.811H188.335V146.655H184.404V148.811Z" fill="#515151"/>
<path d="M188.335 146.655H184.404L185.841 145.936H189.054L188.335 146.655Z" fill="#848484"/>
<path d="M189.053 145.935V147.585L188.334 148.811V146.655L189.053 145.935Z" fill="#424242"/>
<path d="M169.71 152.81H165.969V154.576H169.71V152.81Z" fill="#515151"/>
<path d="M165.969 152.81H169.709L169.086 152.221H166.454L165.969 152.81Z" fill="#848484"/>
<path d="M158.678 154.132H161.899V152.366H158.678V154.132Z" fill="#515151"/>
<path d="M161.899 152.366H158.678L159.855 151.777H162.487L161.899 152.366Z" fill="#848484"/>
<path d="M162.487 151.777V153.127L161.899 154.132V152.366C161.899 152.366 162.487 151.777 162.487 151.777Z" fill="#424242"/>
<path d="M177.555 152.556H174.334V154.322H177.555V152.556Z" fill="#515151"/>
<path d="M174.334 152.556H177.555L176.378 151.968H173.745L174.334 152.556Z" fill="#848484"/>
<path d="M173.746 151.967V153.318L174.335 154.322V152.556L173.746 151.967Z" fill="#424242"/>
<path d="M218.36 110.506V140.028C218.36 141.64 217.72 143.187 216.579 144.327C215.439 145.467 213.893 146.108 212.28 146.108H188.389C186.777 146.108 185.23 145.467 184.09 144.327C182.95 143.187 182.309 141.64 182.309 140.028V110.506H218.36Z" fill="#A3A3A3"/>
<path d="M218.36 110.506V140.028C218.36 141.64 217.72 143.187 216.579 144.327C215.439 145.467 213.893 146.108 212.28 146.108H188.389C187.373 146.108 186.373 145.854 185.481 145.368C184.588 144.881 183.832 144.179 183.282 143.325C187.573 145.244 195.563 143.825 195.563 143.825C210.309 141.283 211.68 119.168 211.645 110.508L218.36 110.506Z" fill="#939393"/>
<path d="M195.084 110.506L187.2 111.286C186.276 111.378 185.413 111.793 184.766 112.459C184.119 113.125 183.727 113.998 183.662 114.925L182.309 133.992V110.506H195.084Z" fill="#AFAFAF"/>
<path d="M218.361 110.505H182.312L197.465 108.358H202.728L218.361 110.505Z" fill="#919191"/>
<path d="M201.08 108.358C200.155 109.161 194.931 110.173 182.312 110.505L197.465 108.358H201.08Z" fill="#AFAFAF"/>
<path d="M202.792 107.408H197.783V108.422H202.792V107.408Z" fill="#D8D6D6"/>
<path d="M202.976 103.898H197.717C197.053 103.898 196.514 104.436 196.514 105.101V106.521C196.514 107.186 197.053 107.724 197.717 107.724H202.976C203.64 107.724 204.179 107.186 204.179 106.521V105.101C204.179 104.436 203.64 103.898 202.976 103.898Z" fill="#919191"/>
<path d="M221.52 107.597H219.506C219.099 107.597 218.769 107.927 218.769 108.334V108.509C218.769 108.916 219.099 109.246 219.506 109.246H221.52C221.927 109.246 222.257 108.916 222.257 108.509V108.334C222.257 107.927 221.927 107.597 221.52 107.597Z" fill="#D8D6D6"/>
<path d="M219.974 108.675L219.403 110.578L218.325 111.338V112.416L220.291 110.895L220.989 108.739L219.974 108.675Z" fill="#D8D6D6"/>
<path d="M179.117 109.246H181.132C181.538 109.246 181.868 108.917 181.868 108.51V108.334C181.868 107.928 181.538 107.598 181.132 107.598H179.117C178.71 107.598 178.381 107.928 178.381 108.334V108.51C178.381 108.917 178.71 109.246 179.117 109.246Z" fill="#D8D6D6"/>
<path d="M180.663 108.675L181.234 110.578L182.312 111.338V112.416L180.346 110.895L179.649 108.739L180.663 108.675Z" fill="#D8D6D6"/>
<path d="M175.11 119.032V142.746C175.11 144.041 174.596 145.282 173.681 146.197C172.765 147.113 171.524 147.627 170.229 147.627H151.033C150.392 147.627 149.757 147.501 149.165 147.256C148.573 147.011 148.035 146.651 147.581 146.198C147.128 145.745 146.768 145.207 146.523 144.614C146.278 144.022 146.152 143.387 146.152 142.746V119.032H175.11Z" fill="#A3A3A3"/>
<path d="M175.11 119.032V142.746C175.11 144.041 174.596 145.282 173.681 146.197C172.765 147.113 171.524 147.627 170.229 147.627H151.033C150.217 147.628 149.414 147.423 148.697 147.033C147.98 146.642 147.373 146.078 146.93 145.392C150.377 146.934 156.796 145.794 156.796 145.794C168.64 143.752 169.742 125.989 169.713 119.032H175.11Z" fill="#939393"/>
<path d="M156.414 119.032L150.082 119.66C149.339 119.733 148.647 120.067 148.127 120.601C147.607 121.136 147.293 121.838 147.24 122.582L146.155 137.897V119.032H156.414Z" fill="#AFAFAF"/>
<path d="M175.11 119.032H146.155L158.327 117.307H162.554L175.11 119.032Z" fill="#919191"/>
<path d="M161.23 117.307C160.487 117.952 156.291 118.765 146.155 119.032L158.327 117.307H161.23Z" fill="#AFAFAF"/>
<path d="M162.606 116.544H158.582V117.359H162.606V116.544Z" fill="#D8D6D6"/>
<path d="M162.753 113.724H158.529C157.996 113.724 157.563 114.157 157.563 114.691V115.832C157.563 116.366 157.996 116.799 158.529 116.799H162.753C163.287 116.799 163.72 116.366 163.72 115.832V114.691C163.72 114.157 163.287 113.724 162.753 113.724Z" fill="#919191"/>
<path d="M177.648 116.696H176.031C175.704 116.696 175.439 116.961 175.439 117.288V117.428C175.439 117.755 175.704 118.02 176.031 118.02H177.648C177.975 118.02 178.24 117.755 178.24 117.428V117.288C178.24 116.961 177.975 116.696 177.648 116.696Z" fill="#D8D6D6"/>
<path d="M176.407 117.562L175.948 119.09L175.082 119.701V120.567L176.661 119.345L177.222 117.613L176.407 117.562Z" fill="#D8D6D6"/>
<path d="M143.589 118.021H145.207C145.534 118.021 145.799 117.756 145.799 117.429V117.288C145.799 116.962 145.534 116.697 145.207 116.697H143.589C143.263 116.697 142.998 116.962 142.998 117.288V117.429C142.998 117.756 143.263 118.021 143.589 118.021Z" fill="#D8D6D6"/>
<path d="M144.831 117.562L145.289 119.09L146.155 119.701V120.567L144.576 119.345L144.016 117.613L144.831 117.562Z" fill="#D8D6D6"/>
<path d="M41.2493 130.902C41.1787 130.885 41.1062 130.876 41.0334 130.876H40.7219V130.197H40.2014V129.719H39.5346L38.6835 125.079L38.5783 125.053V125.079H38.1602L37.2865 129.719H36.6812V130.197H36.0814V130.874H35.9742C35.8567 130.874 35.7405 130.897 35.632 130.942C35.5235 130.987 35.425 131.053 35.3421 131.136C35.2592 131.219 35.1934 131.318 35.1487 131.426C35.1039 131.535 35.081 131.651 35.0813 131.769V144.065C35.0813 144.302 35.1754 144.529 35.3428 144.696C35.5103 144.864 35.7374 144.958 35.9742 144.958H41.0334C41.2701 144.958 41.497 144.864 41.6643 144.696C41.8316 144.529 41.9256 144.302 41.9256 144.065V131.769C41.9256 131.57 41.859 131.376 41.7365 131.219C41.614 131.062 41.4425 130.951 41.2493 130.902Z" fill="#FF8098"/>
<path d="M50.7448 131.306C50.6633 131.289 50.5801 131.281 50.4968 131.281H50.1389V130.623H49.5411V130.157H48.7726L47.795 125.648L47.6748 125.624V125.648H47.1966L46.1917 130.157H45.497V130.623H44.8084V131.281H44.6847C44.1177 131.281 43.66 131.669 43.66 132.148V144.094C43.66 144.573 44.1191 144.961 44.6847 144.961H50.4968C51.0631 144.961 51.5215 144.573 51.5215 144.094V132.148C51.5222 131.741 51.1909 131.4 50.7448 131.306Z" fill="#FF8098"/>
<path d="M57.7742 135.526C57.7178 135.514 57.6603 135.508 57.6027 135.508H57.3554V135.054H56.9421V134.731H56.4113L55.7357 131.618L55.6524 131.601V131.618H55.3204L54.6318 134.733H54.1536V135.055H53.6754V135.51H53.59C53.1986 135.51 52.8816 135.777 52.8816 136.109V144.362C52.8816 144.694 53.1986 144.961 53.59 144.961H57.6061C57.9969 144.961 58.3145 144.694 58.3145 144.362V136.109C58.3132 135.827 58.0843 135.594 57.7742 135.526Z" fill="#FF8098"/>
<path d="M19.7129 130.273V143.838C19.713 143.968 19.6876 144.096 19.6381 144.215C19.5887 144.335 19.5162 144.443 19.4248 144.535C19.3334 144.626 19.2248 144.699 19.1053 144.748C18.9859 144.798 18.8578 144.823 18.7285 144.823H13.1487C13.0193 144.823 12.8911 144.798 12.7716 144.749C12.652 144.699 12.5434 144.627 12.4519 144.535C12.3604 144.444 12.2878 144.335 12.2384 144.215C12.1889 144.096 12.1635 143.968 12.1636 143.838V130.273C12.1636 130.011 12.2674 129.761 12.4521 129.576C12.6368 129.391 12.8874 129.288 13.1487 129.288H18.7285C18.8089 129.287 18.8889 129.297 18.9669 129.317C19.18 129.37 19.3692 129.493 19.5043 129.666C19.6395 129.84 19.7129 130.053 19.7129 130.273Z" fill="#F76378"/>
<path d="M18.3848 128.541H13.2667V129.467H18.3848V128.541Z" fill="#F76378"/>
<path d="M17.811 128.011V128.85C17.811 128.85 13.9724 128.718 13.9287 128.762V128.01L17.811 128.011Z" fill="#F76378"/>
<path d="M17.106 128.188L14.5463 128.277L15.5607 122.893H16.1345L17.0732 128.011L17.106 128.188Z" fill="#F76378"/>
<path d="M19.7129 130.273V143.838C19.713 143.968 19.6876 144.096 19.6381 144.215C19.5887 144.335 19.5162 144.443 19.4248 144.535C19.3334 144.626 19.2248 144.699 19.1053 144.748C18.9859 144.798 18.8578 144.823 18.7285 144.823H13.1487C13.0193 144.823 12.8911 144.798 12.7716 144.749C12.652 144.699 12.5434 144.627 12.4519 144.535C12.3604 144.444 12.2878 144.335 12.2384 144.215C12.1889 144.096 12.1635 143.968 12.1636 143.838V143.331C18.6588 141.654 19.2237 130.394 19.2237 130.394C19.2237 129.866 19.1028 129.529 18.9669 129.317C19.18 129.37 19.3692 129.493 19.5043 129.666C19.6395 129.84 19.7129 130.053 19.7129 130.273Z" fill="#EF4868"/>
<path d="M18.3848 129.019V129.286H14.0497L18.3848 129.019Z" fill="#EF4868"/>
<path d="M17.8109 128.378V128.525H14.7778L17.8109 128.378Z" fill="#EF4868"/>
<path d="M14.877 128.011L15.5813 127.836C15.8447 127.77 16.0754 127.611 16.2307 127.388C16.3861 127.165 16.4555 126.894 16.4263 126.624L16.0226 122.893L16.0192 122.865L16.1346 122.893L17.0732 128.011H14.877Z" fill="#EF4868"/>
<path d="M30.2972 130.691V143.867C30.2972 144.395 29.791 144.823 29.1667 144.823H22.7561C22.1311 144.823 21.6249 144.395 21.6249 143.867V130.691C21.6249 130.162 22.1311 129.734 22.7561 129.734H29.1667C29.2585 129.734 29.35 129.744 29.4399 129.762C29.9324 129.866 30.2972 130.242 30.2972 130.691Z" fill="#F76378"/>
<path d="M28.7718 129.009H22.8921V129.908H28.7718V129.009Z" fill="#F76378"/>
<path d="M28.1126 128.494V129.309C28.1126 129.309 23.703 129.18 23.6525 129.223V128.494H28.1126Z" fill="#F76378"/>
<path d="M27.3024 128.667L24.3622 128.752L25.5276 123.523H26.1868L27.2648 128.494L27.3024 128.667Z" fill="#F76378"/>
<path d="M30.2972 130.691V143.867C30.2972 144.395 29.791 144.823 29.1667 144.823H22.7561C22.1311 144.823 21.6249 144.395 21.6249 143.867V143.374C29.086 141.742 29.7357 130.812 29.7357 130.812C29.7357 130.299 29.5991 129.971 29.4406 129.766C29.9324 129.866 30.2972 130.242 30.2972 130.691Z" fill="#EF4868"/>
<path d="M28.7725 129.473V129.732H23.7917L28.7725 129.473Z" fill="#EF4868"/>
<path d="M28.1126 128.85V128.993H24.6279L28.1126 128.85Z" fill="#EF4868"/>
<path d="M24.7421 128.494L25.5509 128.324C26.1766 128.191 26.5913 127.689 26.5216 127.147L26.0578 123.526L26.0537 123.499L26.1903 123.526L27.2683 128.497L24.7421 128.494Z" fill="#EF4868"/>
<path d="M37.7878 135.059V144.163C37.7878 144.528 37.4381 144.823 37.0063 144.823H32.5769C32.1452 144.823 31.7954 144.528 31.7954 144.163V135.059C31.7954 134.694 32.1452 134.398 32.5769 134.398H37.007C37.0706 134.398 37.1341 134.405 37.1963 134.418C37.5358 134.489 37.7878 134.749 37.7878 135.059Z" fill="#F76378"/>
<path d="M36.7337 133.897H32.6711V134.519H36.7337V133.897Z" fill="#F76378"/>
<path d="M36.2781 133.545V134.108C36.2781 134.108 33.2314 134.019 33.1965 134.048V133.545H36.2781Z" fill="#F76378"/>
<path d="M35.7178 133.66L33.6869 133.719L34.4923 130.107H34.9473L35.6926 133.541L35.7178 133.66Z" fill="#F76378"/>
<path d="M37.7878 135.059V144.163C37.7878 144.528 37.4381 144.823 37.0063 144.823H32.5769C32.1452 144.823 31.7954 144.528 31.7954 144.163V143.821C36.951 142.696 37.3971 135.14 37.3971 135.14C37.3971 134.785 37.3015 134.559 37.1922 134.417C37.5358 134.489 37.7878 134.749 37.7878 135.059Z" fill="#EF4868"/>
<path d="M36.7337 134.218V134.397H33.2927L36.7337 134.218Z" fill="#EF4868"/>
<path d="M36.2781 133.787V133.886H33.8707L36.2781 133.787Z" fill="#EF4868"/>
<path d="M33.9492 133.545L34.508 133.427C34.9404 133.336 35.2267 132.989 35.1789 132.614L34.8585 130.111V130.092L34.95 130.111L35.6926 133.545H33.9492Z" fill="#EF4868"/>
<g style="mix-blend-mode:multiply">
<g style="mix-blend-mode:multiply" opacity="0.61">
<path d="M189.531 140.198C187.058 137.44 190.292 141.149 189.531 143.907C189.515 143.965 189.498 144.019 189.481 144.072C188.65 143.562 187.514 142.961 185.975 142.303C185.896 142.259 185.813 142.223 185.727 142.195L185.706 142.188C185.193 141.974 184.638 141.753 184.037 141.528C184.268 141.484 184.488 141.391 184.68 141.255C184.68 141.255 184.661 141.214 184.764 140.591C184.866 139.968 185.037 139.858 185.037 139.858H185.031C185.044 139.835 185.05 139.809 185.05 139.782C185.05 139.756 185.044 139.729 185.031 139.706C184.952 139.546 184.85 139.399 184.729 139.269C184.387 138.866 183.883 138.359 183.723 137.997C183.4 137.268 182.466 137.455 182.235 137.494C182.004 137.533 181.927 137.581 181.394 137.249C180.861 136.918 180.323 137.256 180.323 137.256C180.303 137.267 180.286 137.283 180.274 137.303C180.262 137.323 180.255 137.345 180.255 137.368C180.222 137.487 180.204 137.609 180.201 137.732C180.194 137.848 180.177 137.962 180.15 138.074C180.129 138.169 180.103 138.264 180.075 138.355C180.047 138.447 180.019 138.533 179.991 138.616C179.963 138.698 179.941 138.765 179.923 138.834C179.577 138.792 179.182 138.753 178.967 138.654C178.437 138.411 178.016 138.967 177.908 139.1C177.801 139.233 177.782 139.297 177.331 139.373C177.306 139.378 177.283 139.384 177.262 139.39C175.77 138.989 174.126 138.584 172.315 138.18C159.347 135.284 155.366 136.049 154.218 136.559C153.954 135.872 153.976 135.423 153.976 135.423L153.088 128.093L145.006 123.776C144.959 123.24 144.702 122.744 144.29 122.397C144.184 122.307 144.07 122.229 143.949 122.162L141.464 120.815C141.608 120.714 141.713 120.566 141.76 120.396C141.807 120.226 141.793 120.045 141.721 119.884L140.491 117.135L137.122 113.442C136.663 112.938 136.031 112.626 135.352 112.567L128.611 111.984L116.703 107.047L110.315 103.697L110.331 103.553C110.358 103.309 110.321 103.063 110.224 102.839C110.127 102.614 109.973 102.419 109.778 102.272L109.163 101.812L102.566 73.1204C102.171 71.6988 96.115 66.9401 93.1639 64.6878C93.1154 64.5512 93.0901 64.4829 93.0901 64.4829L91.5489 63.3024L90.8911 57.8859C90.3578 57.4564 89.8363 57.0536 89.3267 56.6774L89.6785 54.3206C90.3866 54.3767 91.0991 54.3361 91.7962 54.1997C92.7024 54.0327 93.5538 53.6462 94.276 53.0739C95.6197 51.9843 96.7004 49.5899 97.54 46.8806C97.8132 45.9926 98.066 45.0731 98.2914 44.1542C98.5449 43.1145 98.7696 42.0775 98.963 41.0952C99.1679 40.0418 99.3421 39.0458 99.4815 38.1748C99.5382 37.8175 99.5901 37.4814 99.6365 37.1685C99.6461 37.1043 99.6557 37.0408 99.6645 36.9786C100.223 37.0271 100.646 37.0975 100.775 36.8966C100.854 36.76 100.737 36.4806 100.406 36.2135C100.23 36.0722 100.031 35.961 99.8176 35.8842C99.9077 35.2073 99.9508 34.8117 99.9508 34.8117C99.9344 34.6143 99.9152 34.4196 99.8948 34.2263C99.9303 34.3882 99.9631 34.5576 99.9904 34.7352C105.671 30.8762 96.335 24.3345 96.2113 24.2478C97.0543 25.0293 96.6977 25.6297 96.6977 25.6297C96.6977 25.6297 95.688 22.2626 88.5472 20.5971C83.1758 19.3436 80.8825 20.8909 79.9049 22.5099C78.9055 22.7975 77.7141 23.3535 76.9087 24.4186C75.7132 26 75.6579 28.5413 75.7009 29.6787C74.8368 30.1862 73.9931 30.9083 74.5034 31.6058C74.6728 31.8275 74.9202 31.9765 75.1954 32.0225C75.3868 32.0596 75.5822 32.0725 75.7768 32.0608C75.0356 34.4517 74.9194 37.0319 75.1333 39.3136C74.9413 40.6033 75.0984 42.0256 75.8253 43.0503C76.2167 44.3981 76.6963 45.3907 77.1232 45.8026C77.425 46.0953 77.7643 46.3466 78.1322 46.55L77.2045 51.2424C76.1231 51.142 75.5472 51.239 75.5472 51.239L74.0061 52.7194L73.9767 52.6005L73.4411 52.8437C72.6558 53.2008 71.803 53.3855 70.9402 53.3854H70.7831V53.3902C70.5566 53.3583 70.3286 53.3394 70.0999 53.3335C69.5452 53.3335 55.6175 59.4516 48.873 62.4267C48.253 62.7 47.6991 63.1034 47.2486 63.6095C46.7981 64.1156 46.4617 64.7126 46.262 65.36L46.2265 65.3225C46.2265 65.3225 36.5527 92.546 33.8844 102.143C33.5592 103.318 33.5592 104.559 33.8844 105.733C34.6447 108.496 36.6593 113.943 41.7274 120.242C41.7274 120.242 43.4298 119.936 45.9717 118.924C46.5783 119.154 47.2874 119.418 48.1147 119.718C48.8149 119.973 50.0275 120.243 51.5741 120.517L46.1247 150.084C46.1247 150.084 46.5141 150.301 47.4992 150.566L45.0809 177.197H52.3221V177.189C52.3221 177.22 52.3221 177.237 52.3221 177.237L58.1581 178.812C73.9214 183.067 90.5961 182.518 106.046 177.237C106.046 177.237 104.809 161.99 103.188 146.523C102.39 138.907 101.866 133.274 101.522 129.164L101.859 129.354L109.105 139.894L106.208 141.637C105.824 141.868 105.543 142.238 105.424 142.67C105.306 143.103 105.358 143.564 105.57 143.959L109.97 152.137L111.355 154.435C111.456 154.602 111.589 154.748 111.746 154.864C111.903 154.98 112.082 155.064 112.272 155.11C112.461 155.157 112.658 155.166 112.852 155.136C113.045 155.106 113.23 155.039 113.397 154.937L122.467 149.43C122.802 149.227 123.043 148.898 123.137 148.518C123.231 148.137 123.171 147.734 122.969 147.398L121.525 144.992L114.629 149.257L121.523 144.991L115.912 137.402C115.688 137.099 115.358 136.89 114.988 136.816C114.618 136.742 114.233 136.809 113.91 137.004L111.15 138.664L102.431 124.357C102.658 124.239 102.863 124.084 103.038 123.898L100.904 120.321C100.864 119.427 100.862 119.071 100.862 119.071L100.876 118.616L101.31 118.566C101.299 118.515 101.289 118.464 101.279 118.411L101.295 118.451C101.525 119.02 101.965 119.478 102.523 119.732C103.081 119.986 103.716 120.015 104.295 119.814L104.873 119.614C104.873 119.614 106.887 119.298 109.327 117.721L125.95 119.479L126.751 122.022L127.919 124.488L128.964 125.141C129.396 125.411 129.912 125.513 130.414 125.429C130.494 125.416 130.571 125.393 130.644 125.36L131.475 125.879C131.825 126.098 132.244 126.181 132.651 126.112L132.886 126.073L132.937 126.062L132.956 126.144L134.239 126.745C134.499 126.866 134.784 126.926 135.07 126.918C135.357 126.91 135.638 126.836 135.891 126.701C136.069 126.606 136.212 126.458 136.301 126.277L136.32 126.322L136.405 126.366C136.854 126.594 137.35 126.716 137.854 126.722C138.358 126.727 138.856 126.616 139.309 126.397C139.496 126.249 139.622 126.038 139.664 125.803C139.706 125.569 139.661 125.327 139.538 125.124L139.401 124.896L142.034 126.021C142.37 126.166 142.738 126.218 143.101 126.174C143.463 126.129 143.808 125.99 144.099 125.769L151.57 129.458L151.722 133.271C151.755 134.044 151.74 134.818 151.678 135.589C151.354 139.446 152.669 141.396 152.669 141.396C156.753 146.998 178.794 151.343 184.815 150.82C186.901 150.639 188.358 149.98 189.372 149.195C191.285 147.716 191.621 145.793 191.621 145.793L191.61 145.8L191.62 145.795C191.618 145.792 191.616 145.79 191.615 145.787C192.234 144.391 191.342 142.221 189.531 140.198ZM82.5131 62.5831L82.5931 62.622C82.5405 62.5975 82.5131 62.5831 82.5131 62.5831ZM180.849 140.435C180.879 140.396 180.906 140.356 180.931 140.314C181.036 140.397 181.145 140.482 181.259 140.565C181.125 140.522 180.988 140.478 180.849 140.435Z" fill="#C1C1C1"/>
</g>
<path d="M185.74 138.491C186.453 139.664 188.989 140.203 188.276 138.808C187.562 137.413 186.358 137.271 186.358 137.271C186.358 137.271 185.027 137.318 185.74 138.491Z" fill="#B2B2B2"/>
<path d="M185.09 137.199C185.301 137.258 185.499 137.202 185.535 137.076C185.57 136.95 185.428 136.799 185.217 136.741C185.005 136.682 184.807 136.737 184.771 136.864C184.736 136.991 184.878 137.14 185.09 137.199Z" fill="#B2B2B2"/>
</g>
<path d="M73.8961 51.2376C73.8961 51.2376 79.7594 50.243 89.2359 57.8866L88.1886 61.9703L83.4244 60.5043L75.7809 57.5204L73.8961 51.2376Z" fill="#E2E2E2"/>
<path d="M78.8147 36.4485L77.279 44.8668L78.3037 47.0029C78.3037 47.0029 76.9156 47.1846 75.4708 45.8013C74.0259 44.4179 72.0257 36.5066 74.6852 30.5504C77.3446 24.5941 79.8633 28.9587 79.8633 28.9587L78.8147 36.4485Z" fill="#4C3116"/>
<path d="M88.1811 53.257L86.4603 64.7978C86.4603 64.7978 84.8064 64.5034 80.8586 62.5831C76.0815 60.2605 75.0247 53.9176 75.0247 53.9176L77.2892 42.4635L82.5172 40.5979L88.1811 53.257Z" fill="#F7B294"/>
<path d="M85.3496 53.7099C85.5223 53.7937 85.7014 53.8638 85.8851 53.9197C87.3655 54.3644 88.8363 54.4662 90.137 54.2004C91.0435 54.0325 91.8952 53.645 92.6174 53.0719C93.9611 51.9823 95.0412 49.5879 95.8807 46.8786C96.154 45.9905 96.4074 45.071 96.6322 44.1522C96.8863 43.1125 97.1104 42.0755 97.3044 41.0932C97.5093 40.0398 97.6828 39.0438 97.8222 38.1728C97.8796 37.8155 97.9308 37.4794 97.9773 37.1665C98.1911 35.7319 98.2922 34.8083 98.2922 34.8083C97.9971 31.3408 97.1561 28.5365 94.0451 27.1026C93.957 27.0609 93.8662 27.0213 93.7719 26.9824C93.5442 26.8877 93.3042 26.7993 93.0519 26.7173C92.4254 26.7795 91.4916 27.2884 90.2182 29.0249C88.5719 31.2738 86.157 35.0365 83.4552 37.0265C82.5542 37.6898 81.621 38.1557 80.6735 38.3012C79.8826 38.4274 79.072 38.3082 78.3509 37.9596C78.1985 37.8913 78.0523 37.8271 77.9116 37.7745C77.8481 37.9303 77.8132 38.0191 77.8132 38.0191C77.762 37.8993 77.699 37.7849 77.6254 37.6775C76.682 36.2696 74.1728 35.982 74.0506 39.7952C74.0123 41.029 74.2862 41.9812 74.6886 42.7095C75.1637 43.5555 75.8836 44.238 76.7537 44.6673C76.822 44.7001 76.8808 44.7288 76.9361 44.7527C77.0383 44.7989 77.1429 44.8393 77.2497 44.8736L77.2599 44.9078L77.2818 44.8613C77.2818 44.8613 79.6516 50.8954 85.3516 53.7045L85.3496 53.7099Z" fill="#FFCEB8"/>
<path d="M73.7301 39.6558C73.6905 40.8902 73.9644 41.8418 74.3668 42.5687C74.3668 42.5687 74.3668 42.5687 74.3668 42.5728C74.8999 43.523 75.7405 44.2636 76.7503 44.6727C76.8616 44.7171 76.9258 44.7363 76.9258 44.7363C76.9258 44.7363 76.9306 44.7506 76.9326 44.7581C76.9832 44.9303 77.0358 45.0997 77.0925 45.2677L77.2564 44.9132L77.2783 44.8667C77.2783 44.8667 79.2075 49.7785 83.7681 52.802C85.1363 53.7191 86.7471 54.2072 88.3942 54.2038C89.8889 54.1929 91.2538 53.7762 92.2929 52.9332C93.6366 51.8402 94.7173 49.4492 95.5569 46.7365C95.5979 46.603 95.6386 46.4691 95.6792 46.3348C96.1683 44.7014 96.5727 42.9724 96.8979 41.3616C96.9054 41.3261 96.9122 41.2933 96.9197 41.255L96.9792 40.9538C97.04 40.6443 97.098 40.3389 97.1527 40.0418C97.2763 39.3696 97.3856 38.7309 97.4799 38.1454C97.5441 37.7485 97.6015 37.3762 97.652 37.0326C97.8666 35.5912 97.9683 34.6662 97.9683 34.6662C97.6739 31.2191 96.8398 28.4244 93.7691 26.9851C93.7541 26.9776 93.7384 26.97 93.722 26.9632C93.3996 26.8151 93.0686 26.6867 92.7308 26.5786C92.7308 26.5786 87.1544 22.363 81.2138 25.2294C76.9456 27.2898 76.3636 33.4427 76.3704 36.7429C75.2624 36.2395 73.8196 36.7887 73.7301 39.6558Z" fill="#FBBD9D"/>
<path d="M95.328 44.8059C95.3358 45.3485 95.4433 45.885 95.645 46.3888C96.1355 44.7561 96.5426 43.0243 96.8698 41.408C96.3737 41.8218 95.9773 42.3423 95.7103 42.9307C95.4434 43.519 95.3127 44.16 95.328 44.8059Z" fill="#FC9E8B"/>
<path d="M95.3403 44.6891C95.3498 45.4156 95.5392 46.1284 95.8916 46.7638C95.9264 46.6511 95.9599 46.537 95.9968 46.4222C96.488 44.7896 96.8944 43.0578 97.2223 41.4422C97.2538 41.2871 97.2838 41.1321 97.3139 40.9797C96.1136 41.7189 95.315 43.1097 95.3403 44.6891Z" fill="#FC9E8B"/>
<path d="M83.585 45.4516C85.7737 45.4172 87.5184 43.5055 87.4819 41.1817C87.4454 38.8579 85.6415 37.002 83.4528 37.0364C81.2641 37.0708 79.5193 38.9825 79.5558 41.3062C79.5923 43.63 81.3963 45.4859 83.585 45.4516Z" fill="#FC9E8B"/>
<path d="M96.6663 40.3964C96.5201 40.9873 96.0398 41.3828 95.5938 41.2844C95.1477 41.1861 94.9052 40.6232 95.0513 40.0322C95.1975 39.4413 95.6778 39.0444 96.1232 39.1442C96.5686 39.2439 96.8125 39.8054 96.6663 40.3964Z" fill="#263238"/>
<path d="M89.667 38.7261C89.5987 39.3088 89.1546 39.7406 88.6792 39.6927C88.2037 39.6449 87.8744 39.1346 87.9441 38.5519C88.0138 37.9692 88.4565 37.5368 88.9319 37.5846C89.4074 37.6324 89.7373 38.14 89.667 38.7261Z" fill="#263238"/>
<path d="M92.745 36.0565C92.4868 36.3297 91.3617 35.6609 89.8889 35.2244C88.4242 34.7585 87.1181 34.6779 87.058 34.309C87.0354 34.1334 87.364 33.9135 87.9563 33.7967C88.5486 33.6798 89.3956 33.6928 90.2789 33.9627C91.1622 34.2325 91.8713 34.7004 92.2914 35.1281C92.7116 35.5557 92.8619 35.9253 92.745 36.0565Z" fill="#4C3116"/>
<path d="M99.1154 36.8974C98.9357 37.1795 98.1733 36.9261 97.2709 36.9507C96.3671 36.939 95.6116 37.2041 95.4265 36.9247C95.3438 36.7881 95.4524 36.5087 95.7755 36.2347C96.0987 35.9608 96.6356 35.7279 97.2566 35.7224C97.8775 35.7169 98.4254 35.9451 98.7506 36.2129C99.0757 36.4807 99.1946 36.7601 99.1154 36.8974Z" fill="#4C3116"/>
<path d="M93.198 46.177H93.1344L92.3079 46.1264C92.2656 46.1239 92.2262 46.1047 92.1981 46.0731C92.1701 46.0414 92.1557 45.9999 92.1582 45.9577C92.1608 45.9155 92.18 45.876 92.2116 45.848C92.2433 45.8199 92.2848 45.8056 92.327 45.8081L93.1543 45.8586C93.2793 45.8633 93.4037 45.8395 93.5182 45.789C93.6326 45.7384 93.7341 45.6625 93.8148 45.567C94.0159 45.3396 94.1333 45.0504 94.1475 44.7472L94.153 44.6529C94.168 44.4043 94.0293 44.1925 93.8435 44.1809C93.7029 44.1701 93.5666 44.1277 93.4447 44.0567C93.3228 43.9857 93.2186 43.888 93.1399 43.771C92.9656 43.5196 92.8829 43.216 92.9056 42.9109L92.9951 41.5686C92.9994 41.5269 93.0193 41.4884 93.0509 41.4609C93.0825 41.4334 93.1233 41.4189 93.1652 41.4203C93.186 41.4217 93.2064 41.4272 93.2252 41.4365C93.2439 41.4457 93.2606 41.4586 93.2744 41.4743C93.2882 41.4901 93.2987 41.5084 93.3054 41.5282C93.3121 41.548 93.3148 41.5689 93.3134 41.5898L93.2239 42.9314C93.2059 43.1629 93.2676 43.3936 93.3988 43.5852C93.4503 43.6635 93.5188 43.7292 93.5993 43.7774C93.6797 43.8255 93.77 43.8549 93.8634 43.8632C94.2247 43.8858 94.4973 44.2485 94.4713 44.6727L94.4659 44.767C94.4479 45.1443 94.301 45.5041 94.0498 45.7862C93.9432 45.9075 93.8122 46.0049 93.6655 46.0722C93.5187 46.1396 93.3594 46.1752 93.198 46.177Z" fill="#FF806D"/>
<path d="M82.8923 30.7519C82.8923 30.7519 81.3293 33.8294 80.5287 36.7183C80.3226 37.4623 79.8697 38.1142 79.2444 38.5669L78.4322 39.1558C78.4322 39.1558 77.8016 35.5823 78.5244 30.286C78.5244 30.286 80.9604 28.1642 82.8923 30.7519Z" fill="#4C3116"/>
<path d="M79.1418 27.6662L80.6113 32.5779L78.4847 38.4194C78.4847 38.4194 76.6265 36.3501 75.153 36.9602C73.6795 37.5702 76.1285 29.3091 76.1285 29.3091L79.1418 27.6662Z" fill="#4C3116"/>
<path d="M72.8482 31.6044C73.0174 31.826 73.2645 31.975 73.5395 32.0212C74.8737 32.3026 77.184 31.0791 77.184 31.0791C88.3737 33.4516 86.4985 29.1998 86.4985 29.1998C86.4985 29.1998 87.9679 30.8147 92.3803 31.5225C94.58 31.8743 95.8752 31.0443 96.6205 30.1214C96.8797 29.798 97.0962 29.4426 97.2647 29.0639C97.3959 28.7792 97.4969 28.4815 97.5659 28.1758L97.762 29.8597L98.3317 34.7387C104.012 30.8796 94.6756 24.338 94.552 24.2512C95.3956 25.0327 95.0383 25.6332 95.0383 25.6332C95.0383 25.6332 94.0335 22.2674 86.8913 20.6012C81.5198 19.3477 79.2266 20.895 78.249 22.514C77.7796 23.3068 77.5302 24.2104 77.5263 25.1318C77.5263 25.1318 76.2672 25.4651 75.054 26.7508C73.8408 28.0364 75.4933 28.9839 75.4933 28.9839C74.9935 29.1789 74.5094 29.4116 74.045 29.6801C73.1809 30.1869 72.3406 30.9042 72.8482 31.6044Z" fill="#4C3116"/>
<path d="M95.5712 27.4305L96.1122 29.1506L96.214 29.4723C96.214 29.4723 96.3793 29.7067 96.6239 30.1193C97.1465 31.0142 98.0236 32.7445 98.3317 34.7345L98.5414 33.0916L98.9267 30.0803L97.6076 27.5227L95.5712 27.4305Z" fill="#4C3116"/>
<path d="M80.0826 22.2059C79.8845 22.1991 76.8296 22.3323 75.2529 24.4172C73.6762 26.5021 74.0827 30.26 74.0827 30.26L79.3681 28.6205L80.0826 22.2059Z" fill="#4C3116"/>
<path d="M73.5396 32.0211C74.8737 32.3026 77.1841 31.0791 77.1841 31.0791C88.3738 33.4516 86.4986 29.1998 86.4986 29.1998C86.4986 29.1998 87.968 30.8147 92.3803 31.5225C94.58 31.8743 95.9005 31.8039 96.6458 30.8817C97.1684 31.7766 98.0203 32.7466 98.3318 34.7366C98.4743 34.2007 98.5448 33.6482 98.5415 33.0937C98.5549 31.967 98.287 30.8547 97.7621 29.8577C97.6151 29.5817 97.4489 29.3165 97.2647 29.0639C97.1495 28.9063 97.0243 28.7494 96.889 28.5932C96.889 28.5932 96.6397 28.8569 96.1123 29.1527C94.7836 29.8959 91.6897 30.84 86.3613 28.2858C86.3613 28.2858 85.6938 32.3566 77.2073 30.4035C77.2073 30.4035 75.5309 31.9173 73.6263 32.0109C73.597 32.0098 73.5678 32.0133 73.5396 32.0211Z" fill="#35200D"/>
<path d="M78.2531 38.1987C78.2531 38.1987 77.8528 36.4034 75.6832 36.1302C73.5136 35.8569 71.7176 43.204 76.063 44.3278L78.2531 38.1987Z" fill="#FBBD9D"/>
<path d="M75.6764 41.9306C75.7118 41.9369 75.7482 41.9361 75.7834 41.9282C75.8186 41.9204 75.8518 41.9056 75.8813 41.8849L77.2735 40.9421L76.0241 38.7384C76.0055 38.7039 75.9799 38.6737 75.949 38.6498C75.918 38.6259 75.8823 38.6089 75.8442 38.5997C75.8062 38.5905 75.7667 38.5895 75.7282 38.5967C75.6897 38.6039 75.6532 38.6191 75.621 38.6413C75.5532 38.6886 75.5054 38.7593 75.4867 38.8398C75.4681 38.9203 75.4799 39.0049 75.5199 39.0772L76.4681 40.7495L75.58 41.3534C75.5124 41.4008 75.4647 41.4716 75.4463 41.5521C75.4278 41.6326 75.44 41.7171 75.4803 41.7892C75.5003 41.826 75.5283 41.8578 75.5622 41.8822C75.5962 41.9067 75.6352 41.9232 75.6764 41.9306Z" fill="#FF806D"/>
<path d="M103.214 119.613C103.214 119.613 111.905 118.252 115.046 107.048L105.203 107.571L101.856 117.833L103.214 119.613Z" fill="#C1C1C1"/>
<path d="M126.26 124.487L125.092 122.021L123.888 118.2L131.27 114.692L135.249 114.953L137.839 120.407L136.819 124.063L126.26 124.487Z" fill="#EFAE92"/>
<path d="M115.046 107.048L127.925 112.388L124.574 119.509L102.793 117.205C102.793 117.205 103.214 105.268 115.046 107.048Z" fill="#FBBD9D"/>
<path d="M115.046 107.048C115.046 107.048 107.29 107.85 103.953 117.105C103.658 117.926 103.412 118.763 103.214 119.613L102.636 119.813C102.057 120.013 101.424 119.983 100.866 119.73C100.308 119.477 99.8692 119.019 99.6392 118.451L96.9313 111.756L98.2244 99.1983L100.91 73.1184L107.507 101.81L108.122 102.27C108.317 102.417 108.471 102.612 108.568 102.837C108.665 103.061 108.702 103.307 108.676 103.551L108.659 103.695L115.046 107.048Z" fill="white"/>
<path d="M100.911 73.1218C100.911 73.1218 102.439 94.7184 98.6562 104.416C94.873 114.114 98.4199 80.6431 98.4199 80.6431L100.911 73.1218Z" fill="#DDDDDD"/>
<path d="M73.8961 51.2376C73.8961 51.2376 79.5504 57.1016 81.5397 58.9864L80.8566 62.5831C80.8566 62.5831 84.8871 64.6407 89.9149 63.4889C89.9149 63.4889 100.386 71.237 100.913 73.1211C100.913 73.1211 97.9813 110.398 99.6564 118.565L85.2068 120.241L55.0478 112.914L44.5276 67.8337C44.2768 66.7595 44.4092 65.6314 44.9017 64.6444C45.3943 63.6574 46.2162 62.8735 47.2253 62.428C53.9664 59.453 67.8976 53.3349 68.4523 53.3349C69.1853 53.3349 71.2797 53.7536 71.2797 53.7536L73.8961 51.2376Z" fill="#F9F9F9"/>
<path d="M85.2183 64.8784C85.2183 64.8784 82.6907 68.2005 78.8167 70.504C78.8146 70.504 82.9291 69.8284 85.2183 64.8784Z" fill="#EAEAEA"/>
<path d="M78.8168 70.504L79.0258 78.2528L77.665 77.9386L78.8168 70.504Z" fill="#EAEAEA"/>
<path d="M82.2194 78.358C82.9423 78.358 83.5283 77.561 83.5283 76.5778C83.5283 75.5946 82.9423 74.7975 82.2194 74.7975C81.4965 74.7975 80.9105 75.5946 80.9105 76.5778C80.9105 77.561 81.4965 78.358 82.2194 78.358Z" fill="#D1D1D1"/>
<path d="M45.9376 149.56L43.425 177.197H50.669L55.5711 148.827L45.9376 149.56Z" fill="#273238"/>
<path d="M50.1266 119.404L44.4723 150.084C44.4723 150.084 48.0321 152.073 60.9112 151.34L58.9219 120.765L50.1266 119.404Z" fill="#F4F4F4"/>
<path d="M50.964 119.927C50.964 119.927 54.3113 132.283 54.0005 142.334C53.6897 152.385 55.9898 116.262 55.9898 116.262L50.964 119.927Z" fill="#EAEAEA"/>
<path d="M79.0258 63.489C79.0258 63.489 72.3249 60.557 70.5447 53.4367C70.5447 53.4367 73.5812 59.3007 79.0258 63.489Z" fill="#EAEAEA"/>
<path d="M101.21 107.948C101.21 107.948 103.123 106.438 105.457 105.312C104.054 106.17 102.178 107.989 101.132 111.795C100.175 115.285 102.012 116.621 103.953 117.105C103.658 117.926 103.412 118.763 103.214 119.613L102.636 119.813C102.057 120.013 101.424 119.983 100.866 119.73C100.308 119.477 99.8692 119.019 99.6392 118.451L96.9313 111.756L98.2244 99.1983C98.8666 101.884 99.823 105.041 101.21 107.948Z" fill="#DDDDDD"/>
<path d="M107.257 104.571C106.642 104.78 106.04 105.027 105.457 105.312C106.485 104.684 107.257 104.571 107.257 104.571Z" fill="#DDDDDD"/>
<path d="M53.3392 146.403C55.5389 131.795 51.4545 115.301 51.4545 115.301L54.0961 110.041L68.9591 80.4382C68.983 80.3917 69.0055 80.3453 69.0274 80.3015C69.9645 78.3768 70.3942 76.2444 70.2754 74.1069L69.1305 53.3889H69.2876C70.1502 53.389 71.0028 53.2043 71.7879 52.8471L72.3242 52.6039L78.1581 76.5033C78.1581 76.5033 83.1245 78.7358 92.4957 78.5787L88.0553 61.8945L91.4355 64.4843C91.4355 64.4843 93.1549 69.2662 94.8354 73.8118C96.2454 77.6257 97.0515 81.7197 98.0721 86.1177C98.7826 89.1754 99.3564 92.4476 99.6433 95.8551C99.6549 95.9958 99.6672 96.1283 99.6788 96.2404L98.8939 111.374L99.3653 114.046L99.2081 119.072C99.2081 119.072 99.2307 124.537 101.531 146.524C103.151 161.991 104.388 177.237 104.388 177.237C88.9388 182.519 72.2641 183.068 56.5008 178.813L50.6696 177.237C50.6696 177.237 51.1402 161.012 53.3392 146.403Z" fill="#FEDB71"/>
<path d="M81.0157 115.215L54.4193 112.179L54.0962 110.04L68.9591 80.4368C68.983 80.3903 69.0055 80.3439 69.0274 80.3001L64.089 95.9145C63.4753 97.8551 63.5113 99.943 64.1915 101.861C64.8718 103.78 66.1593 105.424 67.8586 106.544L81.0157 115.215Z" fill="#FEDB71"/>
<path d="M40.0742 120.242C40.0742 120.242 52.3248 118.043 60.1781 105.896L46.6705 106.629L40.0742 120.242Z" fill="#C1C1C1"/>
<path d="M97.8481 130.494C97.8481 130.494 97.2394 131.759 95.5644 132.073L92.7369 131.864C92.7369 131.864 90.3289 133.33 89.5945 133.121C88.8601 132.912 83.1047 131.445 83.1047 131.445L77.1362 127.99L53.3673 126L52.3201 119.299L78.1835 120.242L97.8481 130.494Z" fill="#FAD257"/>
<path d="M81.0157 115.215L77.7367 123.732C77.7367 123.732 51.0706 121.393 46.4636 119.718C41.8565 118.042 40.9138 117.519 40.9138 117.519C40.9138 117.519 44.9067 106.692 56.8991 105.872C57.9926 105.799 59.09 105.807 60.1823 105.896L81.0157 115.215Z" fill="#FBBD9D"/>
<path d="M81.0157 115.215L56.5138 106.105L56.895 105.872C57.9885 105.799 59.0858 105.807 60.1781 105.896L81.0157 115.215Z" fill="#F7AB86"/>
<path d="M89.5242 126.489L94.2378 129.316L97.8495 130.494C97.8495 130.494 99.185 131.357 100.049 128.609L91.2532 122.324L89.5242 126.489Z" fill="#FBBD9D"/>
<path d="M101.383 123.898C101.383 123.898 99.4194 126.175 96.9061 122.563L96.042 121.62L92.3531 120.514L91.3284 120.207L92.2704 117.537L93.6128 116.611L98.7096 119.422L101.383 123.898Z" fill="#FBBD9D"/>
<path d="M101.383 123.898C101.383 123.898 99.4194 126.175 96.9061 122.563L96.042 121.62L92.3531 120.514L92.0354 119.421C92.0354 119.421 94.7836 119.813 95.7243 120.599C96.665 121.384 98.7909 124.761 101.383 123.898Z" fill="#F7AB86"/>
<path d="M81.0158 115.215L93.6155 116.611C93.6155 116.611 94.244 127.291 85.2389 130.223L77.6999 123.734C77.6999 123.734 71.1732 116.891 81.0158 115.215Z" fill="#FBBD9D"/>
<path d="M109.755 139.093L109.072 139.442L107.643 140.179L107.448 139.894L85.6905 108.247C85.515 107.994 85.4022 107.703 85.3615 107.397C85.3208 107.092 85.3533 106.781 85.4563 106.491C85.5594 106.2 85.73 105.939 85.9541 105.727C86.1782 105.516 86.4494 105.361 86.7452 105.275L87.0765 105.178L87.3006 105.11C87.7266 104.986 88.1816 105.006 88.5953 105.167C89.0089 105.327 89.3582 105.619 89.5891 105.998L109.494 138.668L109.755 139.093Z" fill="#CCCCCC"/>
<path d="M119.871 144.992L108.314 152.14L103.914 143.962C103.702 143.567 103.65 143.105 103.769 142.673C103.888 142.241 104.168 141.871 104.552 141.639L107.45 139.897L108.839 139.061L109.494 138.668L112.254 137.008C112.577 136.813 112.962 136.746 113.332 136.819C113.702 136.893 114.032 137.102 114.256 137.406L119.871 144.992Z" fill="#CCCCCC"/>
<path d="M108.314 152.14L109.699 154.438C109.8 154.605 109.933 154.751 110.09 154.867C110.247 154.983 110.426 155.066 110.616 155.113C110.805 155.16 111.003 155.168 111.196 155.139C111.389 155.109 111.574 155.041 111.741 154.94L120.81 149.43C121.145 149.227 121.386 148.899 121.48 148.518C121.574 148.137 121.513 147.734 121.312 147.398L119.871 144.992L108.314 152.14Z" fill="#E0E0E0"/>
<path d="M119.871 144.992L113.413 137.726L112.557 137.631L109.133 139.532L109.079 139.442L108.842 139.058L88.5916 106.056C88.095 105.187 87.461 105.119 87.0819 105.178L87.306 105.11C87.732 104.986 88.187 105.006 88.6007 105.167C89.0143 105.327 89.3636 105.619 89.5945 105.998L109.494 138.668L112.254 137.008C112.577 136.814 112.962 136.746 113.332 136.82C113.702 136.894 114.032 137.103 114.256 137.407L119.871 144.992Z" fill="#B5B5B5"/>
<path d="M86.8545 128.845L91.3304 130.73C91.3304 130.73 93.4481 131.593 94.7071 131.276C95.9661 130.959 96.1212 129.627 96.1212 129.627L89.3677 125.623L86.8545 128.845Z" fill="#FBBD9D"/>
<path d="M85.2361 130.223C85.2361 130.223 89.0507 132.064 90.2284 131.986C91.4061 131.907 92.3461 130.73 92.3461 130.73L86.9275 128.138L85.2361 130.223Z" fill="#FBBD9D"/>
<path d="M91.3303 120.207L93.2936 119.66L98.8694 125L102.874 128.377C102.874 128.377 103.031 129.633 100.833 129.712L94.7071 126.257L90.5454 122.409L91.3303 120.207Z" fill="#FBBD9D"/>
<path d="M99.8634 129.106L95.2912 126.07L92.2546 123.732L95.0118 126.454L99.8634 129.106Z" fill="#F7AB86"/>
<path d="M96.059 129.944L93.0922 128.583L89.5665 126.21L92.7779 128.862L96.059 129.944Z" fill="#F7AB86"/>
<path d="M92.1145 130.922L90.0904 130.189L86.933 128.138L89.8807 130.468L92.1145 130.922Z" fill="#F7AB86"/>
<path d="M60.1782 105.896C47.9275 108.933 40.0743 120.242 40.0743 120.242C35.0068 113.943 32.9929 108.492 32.2319 105.734C31.9067 104.559 31.9067 103.319 32.2319 102.144C32.9731 99.4798 34.2533 95.4582 35.7159 91.0369C39.525 79.5309 44.5741 65.3225 44.5741 65.3225L47.4432 68.3044C50.6299 71.892 52.9009 76.1977 54.0621 80.8537C55.2234 85.5096 55.2405 90.3775 54.1119 95.0415L53.2922 98.423C53.2204 98.7205 53.2298 99.0319 53.3196 99.3245C53.4094 99.6172 53.5762 99.8803 53.8025 100.086L60.1782 105.896Z" fill="white"/>
<path d="M85.2184 64.8784L86.67 59.7713L89.2352 57.8866L89.9183 63.4883C89.9183 63.4883 89.0549 65.1688 85.2184 64.8784Z" fill="#F4F4F4"/>
<path d="M88.5199 47.119C88.5199 47.119 89.602 49.8065 92.8475 49.1439C92.8475 49.1439 89.8459 48.8645 88.5199 47.119Z" fill="#FF806D"/>
<path d="M49.3839 62.3229C49.3839 62.3229 59.5141 73.3165 54.4883 93.1847C54.4883 93.1847 57.3151 74.1807 49.3839 62.3229Z" fill="#EAEAEA"/>
<path d="M61.9482 77.9502C61.9482 77.9502 62.1838 82.8974 54.4098 91.2214C54.4098 91.2214 58.5714 84.2323 61.9482 77.9502Z" fill="#EAEAEA"/>
<path d="M93.1605 84.0117C93.1605 84.0117 90.1239 92.3889 73.3701 94.0639C73.3715 94.0639 88.136 91.5507 93.1605 84.0117Z" fill="#FAD157"/>
<path d="M96.4757 136.4C96.4757 136.4 96.0235 147.409 72.9473 159.293C72.9473 159.293 92.8039 147.686 96.4757 136.4Z" fill="#FEDB71"/>
<path d="M74.6284 81.0803C74.6284 81.0803 85.8318 85.1634 94.209 80.1376C94.209 80.1376 86.0415 83.1741 74.6284 81.0803Z" fill="#FAD157"/>
<path d="M124.343 111.76L133.696 112.568C134.375 112.627 135.007 112.939 135.466 113.442L138.835 117.135L140.065 119.884C140.114 119.993 140.136 120.112 140.13 120.231C140.125 120.349 140.091 120.465 140.032 120.569C139.974 120.673 139.892 120.761 139.792 120.827C139.693 120.893 139.58 120.935 139.462 120.949C139.169 120.984 138.871 120.954 138.591 120.86C138.311 120.766 138.055 120.612 137.842 120.407L137.19 119.78C136.726 119.333 136.383 118.775 136.195 118.158L135.931 117.292L134.204 116.115L131.061 117.292L125.25 115.647L124.343 111.76Z" fill="#FBBD9D"/>
<path d="M152.124 136.846C152.124 136.846 153.773 134.412 170.656 138.181C187.54 141.951 189.96 145.79 189.96 145.79L184.241 148.232L163.353 146.426L154.008 141.086L152.124 136.846Z" fill="#CCCCCC"/>
<path d="M157.448 140.923C157.448 140.923 170.421 142.58 181.807 146.585C193.194 150.59 168.144 146.114 168.144 146.114L157.448 140.923Z" fill="#BABABA"/>
<path d="M173.705 144.475C173.705 144.475 169.235 142.573 171.708 143.049C174.181 143.524 176.368 144.38 178.84 145.996C181.313 147.613 187.209 146.757 185.497 143.905L187.304 145.901L185.118 147.994L174.277 146.092L173.705 144.475Z" fill="#D63856"/>
<path d="M171.798 142.866C170.83 144.146 168.095 142.702 167.992 142.556C167.974 142.527 167.962 142.494 167.958 142.46C167.948 142.393 167.944 142.324 167.945 142.255C167.945 142.202 167.945 142.144 167.945 142.083C167.945 142.023 167.945 141.952 167.945 141.884C167.945 141.816 167.94 141.742 167.934 141.671C167.927 141.587 167.913 141.502 167.892 141.42C167.867 141.334 167.852 141.245 167.848 141.155C167.848 141.027 167.916 141.061 167.916 141.061L171.729 141.817H171.735C171.735 141.817 171.639 141.931 171.708 142.388C171.776 142.845 171.798 142.866 171.798 142.866Z" fill="#A52348"/>
<path d="M171.728 141.814C171.713 141.859 171.647 141.895 171.516 141.92C170.748 142.067 169.727 141.898 169.08 141.647C168.528 141.43 167.907 141.324 167.851 141.156C167.846 141.139 167.845 141.122 167.849 141.106C167.854 141.089 167.862 141.074 167.874 141.062C167.874 141.062 168.172 140.706 168.617 140.817C169.062 140.929 169.104 140.878 169.257 140.798C169.409 140.719 170.017 140.38 170.405 140.815C170.597 141.031 171.064 141.27 171.39 141.473C171.503 141.537 171.607 141.617 171.698 141.71C171.711 141.723 171.721 141.74 171.726 141.758C171.731 141.776 171.732 141.796 171.728 141.814Z" fill="#BC2E50"/>
<path d="M170.846 142.426C170.384 142.476 170.243 142.542 169.89 142.503C169.537 142.463 169.524 142.452 169.289 142.322C169.053 142.193 169.078 142.291 168.82 142.15C168.562 142.008 168.66 141.932 168.427 141.889C168.194 141.846 168.196 141.92 168.082 141.812L167.935 141.675C167.929 141.591 167.915 141.507 167.894 141.424L168.088 141.629C168.088 141.629 168.259 141.81 168.435 141.805C168.611 141.8 168.679 141.848 168.802 141.919C168.926 141.99 168.849 141.991 169.205 142.105C169.562 142.219 169.566 142.378 170.36 142.357C171.154 142.335 171.372 142.252 171.47 142.2C171.568 142.148 171.311 142.372 170.846 142.426Z" fill="#931D45"/>
<path d="M170.779 142.76C170.317 142.811 170.175 142.876 169.823 142.837C169.47 142.799 169.457 142.786 169.221 142.656C168.985 142.527 169.011 142.626 168.753 142.484C168.496 142.343 168.592 142.266 168.359 142.223C168.126 142.18 168.128 142.255 168.017 142.147L167.949 142.078C167.949 142.015 167.949 141.947 167.949 141.879L168.023 141.957C168.023 141.957 168.194 142.138 168.37 142.133C168.546 142.128 168.614 142.176 168.737 142.246C168.86 142.316 168.784 142.319 169.14 142.432C169.497 142.546 169.502 142.706 170.296 142.684C171.089 142.662 171.308 142.58 171.406 142.527C171.503 142.475 171.242 142.709 170.779 142.76Z" fill="#931D45"/>
<path d="M170.722 143.072C170.26 143.122 170.119 143.188 169.765 143.149C169.412 143.11 169.4 143.098 169.164 142.968C168.929 142.838 168.954 142.937 168.696 142.796C168.437 142.654 168.534 142.578 168.302 142.535C168.069 142.492 168.071 142.566 167.96 142.46C167.95 142.393 167.946 142.324 167.947 142.255L167.963 142.273C167.963 142.273 168.134 142.454 168.311 142.449C168.488 142.445 168.555 142.492 168.679 142.562C168.802 142.633 168.724 142.635 169.081 142.749C169.438 142.862 169.442 143.022 170.236 143C171.03 142.978 171.249 142.896 171.346 142.844C171.444 142.791 171.184 143.021 170.722 143.072Z" fill="#931D45"/>
<path d="M171.695 141.708C171.645 141.747 171.585 141.771 171.521 141.776C171.42 141.793 171.317 141.803 171.214 141.808C170.311 141.859 169.664 141.603 168.976 141.514C168.346 141.43 168.088 141.293 168.094 141.097C168.095 141.079 168.097 141.061 168.102 141.044C168.102 141.044 168.016 140.736 168.606 140.917C169.196 141.098 169.111 141.19 169.511 140.904C169.91 140.617 169.899 140.582 170.201 140.734C170.504 140.886 170.412 141.149 171.014 141.343C171.15 141.386 171.277 141.43 171.387 141.474C171.5 141.537 171.604 141.615 171.695 141.708Z" fill="#C43961"/>
<path d="M158.774 143.051C158.774 143.051 154.589 139.438 159.344 140.578C164.1 141.719 162.863 140.388 167.048 141.057C171.233 141.725 176.558 147.429 183.501 146.953C190.443 146.478 182.55 141.723 184.071 142.198C185.592 142.674 187.114 146.668 187.875 143.91C188.636 141.152 185.402 137.443 187.875 140.201C190.348 142.958 191.109 146.002 188.636 146.953C186.163 147.905 178.555 148.57 178.555 148.57L158.774 143.051Z" fill="#F34B5D"/>
<path d="M160.01 143.336C160.01 143.336 154.97 139.913 159.915 141.434C164.86 142.956 164.765 142.956 167.429 142.576C170.093 142.196 170.663 144.858 174.277 146.095C177.891 147.331 160.01 143.336 160.01 143.336Z" fill="#E54159"/>
<path d="M177.186 143.346C176.758 145.144 173.202 144.886 173.026 144.78C172.993 144.758 172.966 144.729 172.945 144.695C172.904 144.628 172.867 144.557 172.837 144.484C172.812 144.428 172.786 144.366 172.758 144.302C172.73 144.238 172.698 144.165 172.665 144.092C172.631 144.018 172.596 143.944 172.555 143.872C172.509 143.786 172.455 143.704 172.395 143.626C172.328 143.547 172.271 143.46 172.225 143.367C172.167 143.23 172.253 143.237 172.253 143.237L176.625 142.269H176.631C176.631 142.269 176.583 142.434 176.867 142.884C177.151 143.333 177.186 143.346 177.186 143.346Z" fill="#A52348"/>
<path d="M176.627 142.266C176.632 142.321 176.58 142.39 176.452 142.477C175.709 142.987 174.554 143.281 173.754 143.314C173.071 143.341 172.366 143.519 172.226 143.366C172.213 143.351 172.205 143.333 172.202 143.313C172.198 143.294 172.2 143.274 172.207 143.256C172.207 143.256 172.357 142.743 172.878 142.654C173.398 142.565 173.42 142.492 173.545 142.338C173.669 142.184 174.153 141.544 174.764 141.824C175.067 141.96 175.671 141.999 176.108 142.063C176.258 142.077 176.404 142.113 176.543 142.17C176.594 142.197 176.624 142.228 176.627 142.266Z" fill="#BC2E50"/>
<path d="M175.979 143.318C175.514 143.586 175.395 143.721 175.003 143.843C174.611 143.965 174.593 143.959 174.285 143.93C173.977 143.902 174.049 143.995 173.711 143.966C173.372 143.937 173.437 143.81 173.174 143.872C172.911 143.935 172.945 144.012 172.775 143.951L172.555 143.871C172.509 143.785 172.456 143.702 172.396 143.625L172.695 143.752C172.695 143.752 172.959 143.864 173.143 143.777C173.327 143.689 173.42 143.708 173.583 143.726C173.745 143.744 173.665 143.782 174.094 143.736C174.523 143.691 174.603 143.859 175.43 143.467C176.257 143.075 176.451 142.889 176.529 142.788C176.608 142.688 176.442 143.051 175.979 143.318Z" fill="#931D45"/>
<path d="M176.063 143.704C175.599 143.972 175.48 144.107 175.088 144.23C174.696 144.352 174.678 144.345 174.37 144.317C174.062 144.289 174.133 144.382 173.795 144.353C173.457 144.323 173.522 144.196 173.259 144.259C172.996 144.322 173.03 144.396 172.86 144.338L172.758 144.301C172.73 144.232 172.699 144.164 172.665 144.09L172.779 144.139C172.779 144.139 173.044 144.25 173.228 144.163C173.411 144.077 173.505 144.095 173.668 144.113C173.83 144.131 173.75 144.168 174.179 144.123C174.608 144.078 174.687 144.245 175.515 143.854C176.342 143.463 176.535 143.275 176.614 143.175C176.692 143.075 176.527 143.437 176.063 143.704Z" fill="#931D45"/>
<path d="M176.147 144.06C175.683 144.327 175.564 144.463 175.172 144.585C174.78 144.707 174.762 144.7 174.454 144.672C174.146 144.644 174.217 144.741 173.879 144.708C173.542 144.675 173.606 144.551 173.343 144.614C173.08 144.677 173.114 144.751 172.947 144.694C172.905 144.627 172.869 144.556 172.838 144.483L172.864 144.495C172.864 144.495 173.129 144.606 173.312 144.519C173.496 144.433 173.59 144.451 173.752 144.469C173.915 144.487 173.835 144.524 174.264 144.479C174.693 144.434 174.772 144.601 175.599 144.21C176.427 143.818 176.619 143.631 176.699 143.531C176.778 143.43 176.611 143.792 176.147 144.06Z" fill="#931D45"/>
<path d="M176.543 142.17C176.531 142.207 176.483 142.257 176.39 142.319C176.291 142.384 176.187 142.443 176.081 142.495C175.151 142.967 174.35 142.999 173.583 143.221C172.878 143.426 172.54 143.4 172.458 143.189C172.45 143.17 172.445 143.15 172.442 143.129C172.442 143.129 172.208 142.845 172.915 142.762C173.622 142.68 173.573 142.814 173.864 142.329C174.154 141.844 174.125 141.811 174.514 141.831C174.903 141.852 174.929 142.173 175.653 142.097C175.815 142.081 175.972 142.068 176.108 142.063C176.258 142.077 176.404 142.113 176.543 142.17Z" fill="#C43961"/>
<path d="M179.413 139.975C179.041 141.536 175.956 141.311 175.803 141.22C175.776 141.2 175.752 141.175 175.735 141.145C175.698 141.087 175.667 141.026 175.64 140.962C175.618 140.914 175.596 140.861 175.572 140.805C175.548 140.749 175.52 140.684 175.491 140.622C175.461 140.561 175.43 140.494 175.396 140.432C175.356 140.357 175.311 140.286 175.259 140.218C175.201 140.15 175.151 140.074 175.112 139.993C175.061 139.876 175.136 139.881 175.136 139.881L178.931 139.041H178.937C178.937 139.041 178.894 139.184 179.142 139.575C179.389 139.966 179.413 139.975 179.413 139.975Z" fill="#A52348"/>
<path d="M178.926 139.039C178.93 139.086 178.885 139.146 178.775 139.222C178.13 139.664 177.128 139.92 176.433 139.947C175.84 139.971 175.229 140.123 175.108 139.992C175.097 139.98 175.089 139.964 175.086 139.947C175.083 139.931 175.085 139.914 175.091 139.898C175.091 139.898 175.222 139.452 175.673 139.375C176.125 139.298 176.144 139.235 176.252 139.101C176.36 138.968 176.78 138.413 177.309 138.655C177.573 138.776 178.096 138.807 178.477 138.86C178.606 138.873 178.733 138.904 178.853 138.953C178.898 138.979 178.924 139.006 178.926 139.039Z" fill="#BC2E50"/>
<path d="M178.363 139.951C177.961 140.183 177.858 140.3 177.518 140.407C177.177 140.513 177.162 140.507 176.894 140.483C176.626 140.459 176.689 140.539 176.396 140.513C176.103 140.488 176.161 140.377 175.93 140.432C175.699 140.488 175.732 140.554 175.584 140.501L175.394 140.432C175.354 140.357 175.309 140.286 175.257 140.218L175.517 140.328C175.517 140.328 175.746 140.425 175.905 140.35C176.065 140.275 176.146 140.291 176.287 140.306C176.429 140.321 176.356 140.354 176.731 140.315C177.107 140.276 177.172 140.421 177.893 140.081C178.613 139.741 178.781 139.58 178.849 139.492C178.917 139.405 178.766 139.719 178.363 139.951Z" fill="#931D45"/>
<path d="M178.437 140.287C178.034 140.518 177.931 140.636 177.591 140.742C177.251 140.849 177.236 140.842 176.968 140.818C176.7 140.794 176.763 140.874 176.47 140.849C176.177 140.824 176.235 140.712 176.004 140.768C175.773 140.823 175.805 140.889 175.658 140.836L175.57 140.804C175.545 140.745 175.518 140.683 175.489 140.621L175.588 140.663C175.588 140.663 175.817 140.76 175.977 140.685C176.136 140.61 176.217 140.626 176.358 140.641C176.5 140.656 176.43 140.689 176.802 140.65C177.175 140.611 177.244 140.756 177.964 140.416C178.684 140.076 178.852 139.914 178.92 139.827C178.988 139.74 178.84 140.054 178.437 140.287Z" fill="#931D45"/>
<path d="M178.51 140.595C178.107 140.827 178.004 140.944 177.664 141.05C177.324 141.157 177.309 141.15 177.041 141.126C176.773 141.102 176.836 141.183 176.542 141.157C176.248 141.131 176.307 141.02 176.077 141.076C175.847 141.131 175.877 141.197 175.735 141.144C175.699 141.086 175.668 141.024 175.641 140.961L175.664 140.971C175.664 140.971 175.893 141.068 176.052 140.992C176.212 140.917 176.293 140.933 176.434 140.949C176.576 140.964 176.506 140.996 176.878 140.958C177.251 140.919 177.319 141.063 178.04 140.724C178.76 140.384 178.928 140.222 178.996 140.134C179.064 140.047 178.913 140.363 178.51 140.595Z" fill="#931D45"/>
<path d="M178.853 138.955C178.843 138.987 178.801 139.03 178.721 139.084C178.634 139.141 178.545 139.192 178.452 139.237C177.645 139.647 176.949 139.675 176.285 139.867C175.673 140.043 175.38 140.022 175.308 139.84C175.302 139.823 175.298 139.805 175.295 139.787C175.295 139.787 175.091 139.541 175.705 139.47C176.32 139.399 176.276 139.514 176.525 139.093C176.774 138.672 176.751 138.643 177.089 138.661C177.428 138.679 177.449 138.957 178.078 138.892C178.219 138.877 178.351 138.866 178.473 138.862C178.604 138.874 178.732 138.906 178.853 138.955Z" fill="#C43961"/>
<path d="M168.715 141.778C168.343 143.339 165.258 143.114 165.105 143.023C165.077 143.003 165.054 142.978 165.037 142.948C165.001 142.89 164.969 142.829 164.943 142.766C164.921 142.717 164.898 142.663 164.874 142.608C164.85 142.553 164.822 142.487 164.794 142.425C164.765 142.363 164.732 142.297 164.698 142.235C164.658 142.16 164.613 142.089 164.561 142.022C164.503 141.953 164.454 141.877 164.414 141.796C164.363 141.679 164.438 141.684 164.438 141.684L168.233 140.844H168.239C168.239 140.844 168.197 140.988 168.444 141.378C168.69 141.768 168.715 141.778 168.715 141.778Z" fill="#A52348"/>
<path d="M168.225 140.842C168.229 140.889 168.184 140.949 168.073 141.024C167.429 141.467 166.427 141.723 165.732 141.751C165.139 141.774 164.527 141.926 164.406 141.796C164.395 141.783 164.388 141.767 164.385 141.75C164.382 141.734 164.384 141.717 164.39 141.701C164.39 141.701 164.52 141.255 164.972 141.178C165.424 141.101 165.443 141.037 165.551 140.905C165.659 140.772 166.079 140.216 166.609 140.458C166.872 140.578 167.395 140.61 167.776 140.663C167.905 140.676 168.032 140.707 168.153 140.756C168.196 140.781 168.223 140.809 168.225 140.842Z" fill="#BC2E50"/>
<path d="M167.662 141.754C167.26 141.986 167.157 142.104 166.817 142.21C166.476 142.316 166.461 142.31 166.193 142.286C165.926 142.262 165.989 142.342 165.695 142.316C165.401 142.29 165.46 142.18 165.23 142.236C164.999 142.292 165.031 142.357 164.883 142.304L164.693 142.236C164.653 142.161 164.607 142.09 164.556 142.023L164.816 142.133C164.816 142.133 165.044 142.23 165.204 142.154C165.364 142.078 165.445 142.094 165.586 142.11C165.728 142.126 165.654 142.158 166.03 142.119C166.406 142.08 166.471 142.225 167.192 141.885C167.912 141.545 168.08 141.383 168.148 141.296C168.216 141.208 168.065 141.522 167.662 141.754Z" fill="#931D45"/>
<path d="M167.736 142.089C167.333 142.322 167.23 142.439 166.89 142.545C166.549 142.651 166.534 142.646 166.266 142.622C165.999 142.598 166.062 142.678 165.769 142.652C165.475 142.626 165.534 142.515 165.303 142.571C165.072 142.627 165.104 142.693 164.956 142.639L164.869 142.608C164.844 142.549 164.817 142.487 164.788 142.425L164.887 142.467C164.887 142.467 165.116 142.564 165.275 142.488C165.434 142.413 165.516 142.429 165.658 142.445C165.8 142.46 165.73 142.493 166.101 142.454C166.473 142.415 166.542 142.56 167.263 142.22C167.983 141.88 168.151 141.718 168.219 141.63C168.287 141.543 168.139 141.858 167.736 142.089Z" fill="#931D45"/>
<path d="M167.809 142.398C167.406 142.63 167.303 142.747 166.963 142.854C166.623 142.96 166.607 142.954 166.34 142.93C166.072 142.906 166.135 142.986 165.841 142.96C165.547 142.934 165.606 142.823 165.376 142.879C165.146 142.935 165.176 143 165.034 142.947C164.998 142.889 164.966 142.828 164.94 142.765L164.962 142.775C164.962 142.775 165.191 142.872 165.351 142.796C165.511 142.72 165.592 142.737 165.733 142.752C165.874 142.767 165.805 142.801 166.177 142.761C166.549 142.721 166.618 142.868 167.338 142.527C168.059 142.187 168.226 142.025 168.295 141.938C168.363 141.852 168.211 142.166 167.809 142.398Z" fill="#931D45"/>
<path d="M168.153 140.758C168.142 140.791 168.1 140.833 168.019 140.887C167.934 140.944 167.844 140.995 167.752 141.04C166.944 141.45 166.249 141.477 165.584 141.67C164.969 141.846 164.679 141.826 164.607 141.643C164.601 141.626 164.597 141.609 164.594 141.591C164.594 141.591 164.389 141.344 165.004 141.272C165.619 141.201 165.574 141.318 165.824 140.896C166.073 140.475 166.051 140.447 166.389 140.464C166.727 140.482 166.748 140.76 167.377 140.695C167.517 140.681 167.654 140.669 167.772 140.665C167.903 140.678 168.031 140.709 168.153 140.758Z" fill="#C43961"/>
<path d="M161.657 142.42C160.651 143.67 157.962 142.141 157.863 141.993C157.846 141.962 157.835 141.929 157.832 141.895C157.824 141.827 157.821 141.758 157.825 141.69C157.825 141.636 157.825 141.578 157.831 141.518C157.837 141.458 157.836 141.387 157.837 141.318C157.837 141.249 157.837 141.176 157.832 141.105C157.828 141.02 157.817 140.936 157.798 140.853C157.776 140.766 157.764 140.676 157.762 140.586C157.767 140.458 157.831 140.495 157.831 140.495L161.619 141.368H161.624C161.624 141.368 161.524 141.479 161.579 141.938C161.634 142.396 161.657 142.42 161.657 142.42Z" fill="#A52348"/>
<path d="M161.62 141.366C161.603 141.41 161.537 141.445 161.405 141.466C160.633 141.588 159.618 141.388 158.979 141.115C158.432 140.881 157.817 140.755 157.762 140.585C157.758 140.569 157.758 140.552 157.763 140.536C157.767 140.519 157.776 140.505 157.788 140.493C157.788 140.493 158.098 140.147 158.54 140.271C158.982 140.395 159.025 140.346 159.179 140.271C159.333 140.196 159.952 139.875 160.327 140.322C160.512 140.544 160.971 140.8 161.291 141.011C161.402 141.078 161.504 141.161 161.591 141.257C161.605 141.271 161.615 141.289 161.62 141.308C161.625 141.327 161.625 141.347 161.62 141.366Z" fill="#BC2E50"/>
<path d="M160.722 141.947C160.259 141.984 160.115 142.046 159.766 141.995C159.417 141.945 159.402 141.933 159.17 141.796C158.939 141.66 158.961 141.759 158.708 141.61C158.454 141.461 158.553 141.387 158.322 141.337C158.09 141.287 158.09 141.361 157.98 141.249L157.837 141.104C157.834 141.02 157.822 140.935 157.804 140.852L157.991 141.063C157.991 141.063 158.156 141.249 158.333 141.25C158.509 141.251 158.576 141.3 158.697 141.374C158.818 141.449 158.74 141.449 159.094 141.573C159.447 141.697 159.446 141.859 160.241 141.86C161.035 141.861 161.255 141.788 161.355 141.738C161.454 141.689 161.183 141.911 160.722 141.947Z" fill="#931D45"/>
<path d="M160.642 142.282C160.179 142.318 160.036 142.38 159.686 142.33C159.336 142.28 159.322 142.267 159.09 142.13C158.859 141.994 158.881 142.093 158.628 141.944C158.374 141.795 158.473 141.721 158.242 141.671C158.01 141.621 158.01 141.695 157.9 141.583L157.832 141.515C157.832 141.451 157.837 141.384 157.837 141.315L157.906 141.395C157.906 141.395 158.071 141.582 158.247 141.582C158.424 141.582 158.49 141.632 158.611 141.706C158.732 141.781 158.655 141.781 159.008 141.906C159.36 142.031 159.36 142.191 160.155 142.193C160.949 142.194 161.17 142.12 161.269 142.07C161.368 142.021 161.105 142.246 160.642 142.282Z" fill="#931D45"/>
<path d="M160.575 142.592C160.112 142.628 159.969 142.69 159.619 142.639C159.269 142.589 159.255 142.577 159.024 142.441C158.792 142.304 158.814 142.403 158.561 142.253C158.307 142.104 158.407 142.03 158.175 141.98C157.944 141.93 157.943 142.004 157.834 141.895C157.826 141.827 157.824 141.758 157.827 141.69L157.843 141.708C157.843 141.708 158.008 141.894 158.185 141.894C158.362 141.894 158.428 141.945 158.548 142.019C158.669 142.094 158.593 142.094 158.945 142.218C159.298 142.342 159.298 142.503 160.092 142.505C160.887 142.506 161.107 142.432 161.207 142.383C161.306 142.333 161.039 142.555 160.575 142.592Z" fill="#931D45"/>
<path d="M161.591 141.259C161.539 141.295 161.478 141.316 161.415 141.318C161.313 141.332 161.21 141.34 161.108 141.341C160.202 141.365 159.563 141.091 158.88 140.978C158.251 140.874 157.996 140.729 158.01 140.534C158.011 140.516 158.014 140.498 158.02 140.481C158.02 140.481 157.943 140.171 158.527 140.37C159.111 140.569 159.023 140.656 159.432 140.384C159.84 140.112 159.83 140.075 160.127 140.237C160.424 140.399 160.325 140.658 160.92 140.87C161.054 140.917 161.181 140.966 161.29 141.013C161.402 141.08 161.503 141.162 161.591 141.259Z" fill="#C43961"/>
<path d="M157.572 140.554C157.033 142.066 153.991 141.507 153.848 141.399C153.822 141.376 153.801 141.348 153.786 141.318C153.757 141.256 153.732 141.191 153.713 141.126C153.696 141.074 153.679 141.019 153.661 140.961C153.644 140.903 153.623 140.835 153.601 140.77C153.579 140.705 153.554 140.634 153.527 140.572C153.495 140.493 153.457 140.417 153.413 140.344C153.362 140.269 153.321 140.189 153.29 140.104C153.253 139.982 153.327 139.995 153.327 139.995L157.191 139.573H157.197C157.197 139.573 157.139 139.709 157.341 140.126C157.544 140.543 157.572 140.554 157.572 140.554Z" fill="#A52348"/>
<path d="M157.19 139.571C157.19 139.619 157.138 139.673 157.02 139.736C156.33 140.106 155.307 140.251 154.613 140.203C154.021 140.162 153.396 140.246 153.29 140.104C153.281 140.09 153.275 140.073 153.274 140.056C153.273 140.039 153.277 140.022 153.284 140.007C153.284 140.007 153.463 139.578 153.92 139.551C154.378 139.524 154.403 139.462 154.525 139.342C154.646 139.222 155.125 138.714 155.625 139.013C155.873 139.162 156.391 139.25 156.762 139.346C156.89 139.374 157.013 139.42 157.127 139.483C157.17 139.508 157.191 139.537 157.19 139.571Z" fill="#BC2E50"/>
<path d="M156.532 140.416C156.106 140.604 155.991 140.709 155.644 140.778C155.297 140.847 155.28 140.838 155.016 140.785C154.752 140.733 154.806 140.819 154.517 140.761C154.229 140.704 154.298 140.601 154.063 140.63C153.828 140.66 153.853 140.729 153.712 140.66L153.53 140.571C153.498 140.492 153.46 140.416 153.416 140.343L153.661 140.48C153.661 140.48 153.879 140.602 154.045 140.544C154.212 140.487 154.291 140.511 154.43 140.544C154.569 140.577 154.498 140.6 154.87 140.602C155.242 140.603 155.297 140.755 156.048 140.496C156.798 140.236 156.982 140.093 157.059 140.013C157.137 139.934 156.958 140.23 156.532 140.416Z" fill="#931D45"/>
<path d="M156.568 140.758C156.143 140.944 156.027 141.05 155.68 141.119C155.333 141.187 155.316 141.179 155.052 141.127C154.789 141.074 154.843 141.16 154.554 141.103C154.265 141.046 154.335 140.942 154.1 140.972C153.865 141.001 153.889 141.071 153.748 141.001L153.664 140.96C153.646 140.899 153.626 140.834 153.604 140.77L153.698 140.822C153.698 140.822 153.915 140.944 154.082 140.886C154.248 140.828 154.327 140.854 154.466 140.886C154.605 140.918 154.534 140.942 154.907 140.943C155.279 140.944 155.334 141.097 156.084 140.837C156.834 140.576 157.018 140.434 157.096 140.355C157.174 140.276 156.994 140.571 156.568 140.758Z" fill="#931D45"/>
<path d="M156.607 141.072C156.181 141.259 156.066 141.365 155.719 141.433C155.372 141.501 155.355 141.494 155.091 141.441C154.827 141.389 154.881 141.475 154.592 141.417C154.304 141.36 154.374 141.257 154.139 141.286C153.904 141.315 153.928 141.384 153.789 141.318C153.76 141.256 153.735 141.191 153.715 141.126L153.737 141.137C153.737 141.137 153.954 141.259 154.12 141.201C154.287 141.143 154.366 141.169 154.505 141.201C154.644 141.233 154.573 141.257 154.946 141.258C155.318 141.259 155.372 141.412 156.123 141.152C156.873 140.893 157.057 140.749 157.135 140.67C157.213 140.591 157.033 140.886 156.607 141.072Z" fill="#931D45"/>
<path d="M157.127 139.48C157.09 139.531 157.039 139.571 156.981 139.594C156.889 139.641 156.795 139.681 156.698 139.716C155.851 140.036 155.157 139.989 154.474 140.106C153.847 140.215 153.558 140.163 153.507 139.97C153.502 139.952 153.5 139.934 153.499 139.916C153.499 139.916 153.325 139.649 153.942 139.643C154.56 139.637 154.504 139.75 154.801 139.358C155.097 138.967 155.074 138.936 155.409 138.991C155.744 139.045 155.735 139.323 156.365 139.327C156.507 139.327 156.643 139.332 156.761 139.34C156.889 139.369 157.012 139.416 157.127 139.48Z" fill="#C43961"/>
<path d="M182.198 146.512C180.755 148.113 176.888 146.164 176.745 145.973C176.72 145.936 176.705 145.893 176.7 145.849C176.688 145.762 176.685 145.674 176.69 145.586C176.69 145.517 176.695 145.443 176.698 145.366C176.701 145.289 176.705 145.198 176.705 145.11C176.706 145.023 176.705 144.929 176.699 144.837C176.692 144.728 176.676 144.62 176.649 144.515C176.617 144.404 176.599 144.289 176.597 144.173C176.604 144.01 176.697 144.057 176.697 144.057L182.142 145.165H182.15C182.15 145.165 182.007 145.308 182.086 145.894C182.166 146.48 182.198 146.512 182.198 146.512Z" fill="#A52348"/>
<path d="M182.143 145.164C182.119 145.221 182.024 145.265 181.833 145.292C180.724 145.45 179.265 145.196 178.346 144.848C177.561 144.551 176.674 144.392 176.597 144.174C176.591 144.153 176.591 144.13 176.598 144.109C176.604 144.088 176.617 144.069 176.634 144.056C176.634 144.056 177.078 143.611 177.712 143.77C178.346 143.928 178.409 143.865 178.631 143.77C178.853 143.675 179.741 143.263 180.28 143.833C180.547 144.117 181.207 144.44 181.667 144.713C181.825 144.796 181.971 144.902 182.1 145.027C182.143 145.078 182.16 145.124 182.143 145.164Z" fill="#BC2E50"/>
<path d="M180.85 145.91C180.185 145.957 179.978 146.036 179.471 145.972C178.965 145.909 178.948 145.893 178.615 145.719C178.283 145.545 178.314 145.671 177.949 145.481C177.585 145.291 177.727 145.196 177.395 145.133C177.062 145.07 177.062 145.164 176.904 145.021L176.699 144.837C176.692 144.728 176.676 144.62 176.649 144.515L176.919 144.784C176.919 144.784 177.157 145.021 177.41 145.021C177.664 145.021 177.76 145.085 177.934 145.18C178.108 145.275 177.997 145.275 178.504 145.433C179.011 145.592 179.012 145.798 180.153 145.798C181.293 145.798 181.611 145.703 181.754 145.64C181.897 145.576 181.516 145.862 180.85 145.91Z" fill="#931D45"/>
<path d="M180.738 146.338C180.072 146.386 179.866 146.465 179.359 146.401C178.851 146.338 178.836 146.322 178.503 146.148C178.169 145.974 178.201 146.1 177.837 145.91C177.473 145.72 177.615 145.625 177.283 145.561C176.95 145.498 176.949 145.593 176.791 145.45L176.697 145.365C176.701 145.284 176.703 145.197 176.704 145.11L176.807 145.213C176.807 145.213 177.045 145.45 177.298 145.45C177.552 145.45 177.647 145.513 177.822 145.609C177.997 145.705 177.884 145.704 178.392 145.862C178.9 146.021 178.899 146.227 180.04 146.227C181.182 146.227 181.499 146.132 181.642 146.069C181.784 146.006 181.405 146.29 180.738 146.338Z" fill="#931D45"/>
<path d="M180.644 146.734C179.978 146.782 179.773 146.861 179.265 146.798C178.758 146.734 178.742 146.718 178.409 146.544C178.077 146.37 178.108 146.496 177.744 146.306C177.38 146.117 177.522 146.021 177.189 145.957C176.855 145.894 176.856 145.988 176.7 145.849C176.688 145.762 176.685 145.674 176.69 145.586L176.713 145.61C176.713 145.61 176.951 145.847 177.205 145.847C177.459 145.847 177.553 145.911 177.728 146.006C177.902 146.101 177.791 146.101 178.299 146.259C178.806 146.418 178.805 146.624 179.947 146.624C181.089 146.624 181.406 146.528 181.548 146.466C181.69 146.403 181.31 146.686 180.644 146.734Z" fill="#931D45"/>
<path d="M182.099 145.027C182.066 145.058 181.985 145.085 181.847 145.103C181.7 145.121 181.553 145.131 181.405 145.134C180.107 145.165 179.186 144.816 178.203 144.674C177.3 144.543 176.932 144.357 176.952 144.107C176.954 144.084 176.959 144.061 176.967 144.039C176.967 144.039 176.856 143.643 177.696 143.897C178.536 144.151 178.409 144.261 178.994 143.913C179.579 143.564 179.564 143.517 179.992 143.722C180.42 143.928 180.278 144.261 181.134 144.531C181.325 144.591 181.509 144.653 181.665 144.713C181.824 144.796 181.97 144.902 182.099 145.027Z" fill="#C43961"/>
<path d="M189.96 145.79C189.96 145.79 189.625 147.713 187.711 149.192C186.698 149.976 185.24 150.635 183.154 150.816C177.133 151.34 155.092 146.994 151.009 141.393C151.009 141.393 149.694 139.443 150.018 135.586C150.08 134.815 150.094 134.04 150.061 133.267L149.909 129.455L141.637 125.371L141.901 125.06L143.103 123.643L151.427 128.093L152.316 135.423C152.316 135.423 152.158 138.513 157.446 140.921C162.733 143.329 184.463 148.932 189.96 145.79Z" fill="white"/>
<path d="M187.711 149.192C186.698 149.976 185.24 150.635 183.154 150.816C177.133 151.34 155.092 146.994 151.009 141.393C151.009 141.393 149.694 139.443 150.018 135.586C150.08 134.815 150.094 134.04 150.061 133.267L149.909 129.455L141.637 125.371L141.901 125.06L142.874 125.31L150.537 129.036L150.935 136.715C150.981 137.617 151.226 138.497 151.651 139.294C152.076 140.092 152.671 140.785 153.394 141.326C157.315 144.258 169.49 149.926 187.711 149.192Z" fill="#DDDDDD"/>
<path d="M143.19 124.743C143.103 124.941 142.997 125.131 142.874 125.31C142.603 125.698 142.206 125.981 141.751 126.11C141.295 126.239 140.809 126.207 140.375 126.019L118.85 116.82C118.256 116.566 117.719 116.193 117.273 115.724C116.828 115.255 116.482 114.7 116.259 114.093C116.049 113.522 116.049 112.895 116.259 112.324C116.469 111.753 116.876 111.276 117.406 110.977C118.045 110.617 118.766 110.425 119.5 110.42C120.234 110.415 120.957 110.597 121.602 110.948L142.291 122.163C142.735 122.404 143.074 122.801 143.24 123.279C143.407 123.756 143.389 124.278 143.19 124.743Z" fill="#212122"/>
<path d="M142.634 122.398L142.612 122.431C142.341 122.819 141.944 123.101 141.488 123.23C141.033 123.36 140.547 123.328 140.112 123.14L118.589 113.939C117.673 113.548 116.903 112.879 116.39 112.026C116.618 111.584 116.971 111.218 117.405 110.974C118.045 110.614 118.766 110.423 119.5 110.418C120.234 110.413 120.957 110.594 121.602 110.945L142.291 122.16C142.413 122.227 142.528 122.307 142.634 122.398Z" fill="#5F6166"/>
<path d="M182.74 142.05C182.559 141.949 182.354 141.899 182.147 141.904C181.94 141.91 181.738 141.97 181.563 142.079C181.252 142.28 181.125 142.599 181.979 143.051C183.596 143.907 183.596 144.953 183.881 144.953C184.154 144.953 185.452 143.498 182.74 142.05Z" fill="#D63856"/>
<path d="M184.7 137.271C184.7 137.271 183.369 137.318 184.082 138.491C184.795 139.664 187.332 140.203 186.618 138.808C185.905 137.413 184.7 137.271 184.7 137.271Z" fill="#D63856"/>
<path d="M183.894 137.093C183.929 136.966 183.786 136.816 183.575 136.758C183.364 136.699 183.165 136.755 183.13 136.881C183.095 137.008 183.237 137.158 183.448 137.216C183.659 137.275 183.858 137.219 183.894 137.093Z" fill="#F34B5D"/>
<path d="M164.667 142.756C164.667 142.756 164.984 143.12 165.855 142.756C166.727 142.391 168.079 141.519 167.736 142.089C167.393 142.66 166.791 142.74 167.9 142.787C169.009 142.834 167.409 143.279 167.409 143.279L165.807 143.294C165.807 143.294 164.571 143.422 164.667 142.756Z" fill="#E54159"/>
<path d="M165.475 142.089C165.475 142.089 166.315 141.376 166.077 141.836C165.84 142.296 165.126 142.702 165.126 142.375C165.126 142.312 165.475 142.089 165.475 142.089Z" fill="#E54159"/>
<path d="M165.661 141.497C165.855 141.385 165.974 141.23 165.928 141.15C165.882 141.071 165.688 141.097 165.494 141.208C165.301 141.32 165.181 141.475 165.228 141.555C165.274 141.635 165.468 141.609 165.661 141.497Z" fill="#E54159"/>
<path d="M183.025 141.255C181.228 142.516 178.274 139.487 178.2 139.253C178.189 139.208 178.188 139.162 178.196 139.116C178.212 139.024 178.234 138.932 178.264 138.843C178.286 138.775 178.312 138.698 178.337 138.619C178.363 138.541 178.394 138.448 178.42 138.359C178.447 138.269 178.474 138.172 178.495 138.077C178.522 137.965 178.539 137.851 178.547 137.736C178.55 137.613 178.568 137.49 178.6 137.372C178.655 137.206 178.727 137.279 178.727 137.279L183.372 139.864H183.379C183.379 139.864 183.205 139.972 183.106 140.596C183.006 141.22 183.025 141.255 183.025 141.255Z" fill="#A52348"/>
<path d="M183.377 139.856C183.338 139.908 183.24 139.929 183.056 139.905C181.994 139.773 180.737 139.125 179.999 138.523C179.371 138.009 178.607 137.61 178.602 137.366C178.602 137.343 178.609 137.321 178.621 137.301C178.633 137.281 178.65 137.265 178.67 137.254C178.67 137.254 179.208 136.913 179.741 137.247C180.274 137.582 180.35 137.53 180.582 137.492C180.813 137.454 181.748 137.266 182.07 137.995C182.23 138.357 182.737 138.864 183.076 139.267C183.197 139.397 183.299 139.545 183.378 139.704C183.39 139.727 183.397 139.754 183.397 139.78C183.397 139.807 183.39 139.833 183.377 139.856Z" fill="#BC2E50"/>
<path d="M181.973 140.279C181.35 140.151 181.138 140.177 180.693 139.978C180.248 139.778 180.239 139.757 179.986 139.49C179.733 139.223 179.725 139.361 179.448 139.069C179.172 138.776 179.331 138.717 179.045 138.563C178.76 138.409 178.731 138.507 178.629 138.319C178.585 138.237 178.537 138.148 178.497 138.075C178.523 137.962 178.541 137.848 178.549 137.733L178.715 138.082C178.715 138.082 178.861 138.389 179.092 138.457C179.324 138.524 179.392 138.614 179.523 138.758C179.655 138.901 179.554 138.873 179.97 139.168C180.386 139.463 180.325 139.677 181.368 139.98C182.411 140.283 182.73 140.27 182.88 140.242C183.029 140.215 182.596 140.407 181.973 140.279Z" fill="#931D45"/>
<path d="M181.744 140.689C181.121 140.561 180.909 140.588 180.464 140.388C180.019 140.188 180.009 140.167 179.757 139.9C179.505 139.633 179.495 139.771 179.219 139.479C178.942 139.186 179.101 139.127 178.816 138.973C178.53 138.819 178.502 138.918 178.4 138.729L178.339 138.616C178.366 138.534 178.395 138.446 178.422 138.356L178.485 138.489C178.485 138.489 178.631 138.796 178.864 138.864C179.096 138.931 179.163 139.022 179.295 139.166C179.426 139.31 179.324 139.28 179.741 139.576C180.157 139.871 180.095 140.084 181.139 140.388C182.183 140.691 182.501 140.677 182.65 140.65C182.8 140.623 182.367 140.818 181.744 140.689Z" fill="#931D45"/>
<path d="M181.539 141.071C180.916 140.942 180.703 140.969 180.258 140.77C179.814 140.57 179.804 140.549 179.551 140.282C179.299 140.015 179.29 140.153 179.014 139.86C178.737 139.568 178.896 139.509 178.611 139.355C178.325 139.201 178.297 139.297 178.196 139.114C178.211 139.021 178.234 138.93 178.264 138.84L178.279 138.871C178.279 138.871 178.425 139.178 178.657 139.246C178.889 139.313 178.957 139.403 179.088 139.547C179.218 139.691 179.118 139.662 179.534 139.957C179.95 140.252 179.889 140.466 180.933 140.77C181.977 141.073 182.294 141.059 182.444 141.032C182.593 141.005 182.162 141.196 181.539 141.071Z" fill="#931D45"/>
<path d="M183.378 139.704C183.338 139.728 183.257 139.733 183.125 139.716C182.985 139.695 182.847 139.666 182.712 139.629C181.514 139.316 180.778 138.713 179.922 138.306C179.135 137.931 178.854 137.644 178.947 137.392C178.955 137.368 178.967 137.345 178.98 137.324C178.98 137.324 178.997 136.887 179.689 137.371C180.382 137.855 180.233 137.935 180.873 137.732C181.514 137.53 181.513 137.477 181.843 137.801C182.172 138.125 181.943 138.43 182.645 138.934C182.802 139.047 182.952 139.159 183.077 139.262C183.198 139.394 183.3 139.543 183.378 139.704Z" fill="#C43961"/>
<path d="M134.661 126.32L134.747 126.364C135.196 126.592 135.692 126.714 136.196 126.72C136.699 126.725 137.198 126.614 137.652 126.394C137.838 126.246 137.964 126.035 138.005 125.801C138.047 125.567 138.002 125.325 137.879 125.122L135.124 120.587L132.987 118.294C132.863 118.16 132.699 118.07 132.52 118.034C132.341 117.999 132.156 118.02 131.99 118.096C131.884 118.145 131.79 118.214 131.711 118.299C131.633 118.384 131.573 118.485 131.534 118.594C131.495 118.703 131.478 118.819 131.484 118.934C131.491 119.05 131.521 119.163 131.572 119.267L132.764 121.703L134.661 126.32Z" fill="#FBBD9D"/>
<path d="M131.297 126.142L132.58 126.743C132.84 126.864 133.124 126.924 133.411 126.916C133.698 126.908 133.979 126.834 134.232 126.699C134.439 126.591 134.598 126.41 134.679 126.191C134.76 125.972 134.756 125.731 134.669 125.515L132.714 120.717L130.99 118.17C130.887 118.021 130.741 117.907 130.571 117.844C130.401 117.781 130.215 117.773 130.04 117.819C129.929 117.846 129.826 117.895 129.734 117.964C129.643 118.032 129.567 118.118 129.51 118.217C129.454 118.316 129.417 118.425 129.404 118.538C129.39 118.651 129.4 118.765 129.432 118.875L130.201 121.402L131.297 126.142Z" fill="#FBBD9D"/>
<path d="M128.452 125.025L129.818 125.877C130.168 126.096 130.586 126.179 130.994 126.11L131.229 126.071C131.688 125.994 131.954 125.661 131.849 125.291L130.721 121.322L129.455 119.067C129.304 118.798 128.954 118.611 128.586 118.602C128.107 118.591 127.758 118.884 127.819 119.25L128.155 121.287L128.452 125.025Z" fill="#FBBD9D"/>
<path d="M126.26 124.487L127.305 125.14C127.737 125.41 128.253 125.512 128.756 125.428C129.166 125.36 129.408 125.058 129.314 124.726L128.299 121.156L127.553 119.718C127.416 119.476 127.102 119.308 126.771 119.299C126.338 119.289 126.027 119.553 126.081 119.883L126.384 121.714L126.26 124.487Z" fill="#FBBD9D"/>
<path d="M60.1782 105.896L52.6507 100.276C47.5272 99.8104 41.2513 104.738 41.0648 104.885C47.213 99.3302 51.7046 98.9756 51.7046 98.9756L54.9051 89.5921C54.8094 91.4288 54.5437 93.2526 54.1113 95.0401L53.2915 98.4216C53.2197 98.7192 53.2292 99.0306 53.319 99.3232C53.4087 99.6158 53.5755 99.879 53.8018 100.085L60.1782 105.896Z" fill="#DBDBDB"/>
<path d="M40.0735 120.241C35.0061 113.942 32.9922 108.491 32.2312 105.732C31.906 104.558 31.906 103.317 32.2312 102.143C32.9724 99.4784 34.2526 95.4568 35.7151 91.0356C34.202 96.1174 32.3446 102.947 32.7777 104.534C33.4875 107.126 40.023 120.139 40.0735 120.241Z" fill="#F9F9F9"/>
<path d="M239.312 70.9501H205.835L160.691 23.7771L164.921 23.3098L195.183 19.9727L237.556 68.9212L239.312 70.9501Z" fill="#F9F9F9"/>
<path d="M239.313 70.9501H205.835L207.61 68.9212H237.556L239.313 70.9501Z" fill="#EDEDED"/>
<path d="M207.61 68.9212L205.835 70.9501L160.691 23.7771L164.033 23.4369L207.61 68.9212Z" fill="#E0E0E0"/>
<path d="M172.357 32.1461L205.247 31.5703L205.898 32.3046L173.137 32.9229L172.357 32.1461Z" fill="#E0E0E0"/>
<path d="M174.133 34.2386L207.022 33.6627L207.674 34.397L174.912 35.0153L174.133 34.2386Z" fill="#E0E0E0"/>
<path d="M175.781 36.1404L208.671 35.5645L209.322 36.2989L176.561 36.9171L175.781 36.1404Z" fill="#E0E0E0"/>
<path d="M181.931 43.2423L214.821 42.6664L215.473 43.4008L182.712 44.019L181.931 43.2423Z" fill="#E0E0E0"/>
<path d="M183.707 45.3347L216.596 44.7581L217.248 45.4925L184.486 46.1107L183.707 45.3347Z" fill="#E0E0E0"/>
<path d="M185.355 47.2366L218.245 46.6607L218.896 47.395L186.135 48.0133L185.355 47.2366Z" fill="#E0E0E0"/>
<path d="M264.068 70.9501H244.638L201.479 21.0733L205.708 20.6067L234.304 19.9727L262.311 68.9212L264.068 70.9501Z" fill="#F9F9F9"/>
<path d="M214.218 31.0969L247.107 30.521L247.759 31.2553L214.998 31.8729L214.218 31.0969Z" fill="#E0E0E0"/>
<path d="M215.993 33.1893L248.882 32.6127L249.534 33.3471L216.772 33.9653L215.993 33.1893Z" fill="#E0E0E0"/>
<path d="M217.641 35.0911L250.531 34.5152L251.183 35.2496L218.422 35.8678L217.641 35.0911Z" fill="#E0E0E0"/>
<path d="M223.792 42.1923L256.681 41.6164L257.333 42.3508L224.572 42.969L223.792 42.1923Z" fill="#E0E0E0"/>
<path d="M225.567 44.2847L258.457 43.7088L259.108 44.4432L226.347 45.0614L225.567 44.2847Z" fill="#E0E0E0"/>
<path d="M227.216 46.1873L260.105 45.6107L260.757 46.3451L227.996 46.9633L227.216 46.1873Z" fill="#E0E0E0"/>
<path d="M264.068 70.9501H244.638L246.414 68.9212H262.311L264.068 70.9501Z" fill="#EDEDED"/>
<path d="M246.414 68.9212L244.638 70.9501L201.479 21.0733L204.82 20.7338L246.414 68.9212Z" fill="#E0E0E0"/>
<path d="M177.267 151.58C177.213 151.543 177.155 151.512 177.095 151.487C177.046 151.466 176.99 151.446 176.928 151.425C176.808 151.385 176.665 151.347 176.499 151.31C174.996 150.969 171.682 150.734 167.84 150.734C163.998 150.734 160.687 150.969 159.18 151.31C159.092 151.329 159.01 151.35 158.934 151.37C158.813 151.402 158.694 151.442 158.578 151.489C158.52 151.514 158.464 151.544 158.412 151.58C158.385 151.594 158.362 151.614 158.345 151.639C158.328 151.664 158.317 151.692 158.313 151.722C158.313 152.269 162.578 152.71 167.84 152.71C173.101 152.71 177.366 152.267 177.366 151.722C177.362 151.692 177.351 151.664 177.334 151.639C177.317 151.614 177.294 151.594 177.267 151.58ZM167.84 150.974C172.053 150.974 175.568 151.215 176.383 151.537C176.424 151.552 176.464 151.572 176.5 151.597C176.541 151.624 176.561 151.652 176.561 151.68C176.561 151.689 176.558 151.699 176.554 151.707C176.373 152.086 172.541 152.39 167.84 152.39C163.023 152.39 159.118 152.073 159.118 151.683C159.119 151.67 159.123 151.657 159.129 151.645C159.135 151.633 159.144 151.623 159.155 151.615L159.166 151.606C159.206 151.578 159.25 151.555 159.296 151.538C160.111 151.215 163.626 150.974 167.84 150.974Z" fill="#727272"/>
<path d="M158.313 151.722V151.437L161.705 152.108L166.936 152.298L173.562 152.14L177.366 151.437V151.722L175.845 152.076L172.547 152.488L166.333 152.52L161.705 152.393L158.313 151.722Z" fill="#727272"/>
<path d="M176.943 151.707H176.554H175.886H175.641C175.893 151.673 176.142 151.615 176.383 151.533C175.568 151.211 172.053 150.969 167.84 150.969C163.627 150.969 160.111 151.211 159.296 151.533C159.501 151.615 159.889 151.693 160.415 151.762H159.984H159.296L159.155 151.607L159.143 151.594L158.934 151.363L158.895 151.319L160.627 150.874L165.129 150.621C165.129 150.621 171.406 150.642 172.59 150.663C173.774 150.684 176.331 151.107 176.331 151.107L176.923 151.319L176.928 151.418L176.933 151.509L176.943 151.707Z" fill="#727272"/>
<path d="M167.84 150.448C162.58 150.448 158.313 150.891 158.313 151.437C158.317 151.467 158.328 151.495 158.345 151.52C158.362 151.545 158.385 151.565 158.412 151.58C159.079 152.058 163.045 152.425 167.839 152.425C172.633 152.425 176.6 152.058 177.266 151.58C177.293 151.565 177.316 151.545 177.333 151.52C177.35 151.495 177.361 151.467 177.365 151.437C177.366 150.891 173.101 150.448 167.84 150.448ZM176.561 151.394C176.561 151.443 176.499 151.491 176.383 151.537C176.142 151.619 175.893 151.677 175.641 151.711C174.206 151.942 171.253 152.101 167.84 152.101C164.701 152.101 161.951 151.965 160.415 151.766C159.889 151.698 159.504 151.619 159.296 151.537C159.18 151.491 159.118 151.443 159.118 151.394C159.118 151.366 159.139 151.338 159.18 151.31C159.694 150.96 163.375 150.688 167.84 150.688C172.304 150.688 175.985 150.961 176.499 151.31C176.54 151.338 176.561 151.366 176.561 151.394Z" fill="#515151"/>
<path d="M212.268 83.4774L246.936 83.8975L244.939 83.2321L215.648 82.9466L212.268 83.4774Z" fill="#AFAFAF"/>
<path d="M212.268 83.4774L259.065 83.985V88.4868L212.268 87.2818V83.4774Z" fill="#C4C2C2"/>
<path d="M202.789 97.4071C202.789 97.4071 196.219 91.854 201.427 83.4842C206.636 75.1145 203.264 65.3088 203.264 65.3088C203.264 65.3088 207.651 78.4652 204.338 83.5792C201.025 88.6931 199.666 92.3123 202.789 97.4071Z" fill="#F7A4AE"/>
<path d="M195.196 103.048C195.196 103.048 191.629 99.9545 194.545 95.3967C197.462 90.8388 195.68 85.4352 195.68 85.4352C195.68 85.4352 197.996 92.686 196.143 95.4698C194.289 98.2535 193.518 100.231 195.196 103.048Z" fill="#F7A4AE"/>
<path d="M193.978 91.6531C193.978 91.6531 191.289 89.3209 193.488 85.8847C195.687 82.4486 194.343 78.3703 194.343 78.3703C194.343 78.3703 196.09 83.8353 194.692 85.9366C193.295 88.038 192.713 89.5292 193.978 91.6531Z" fill="#F7A4AE"/>
</g>
<g style="mix-blend-mode:multiply" opacity="0.65">
<path d="M100.113 27.8396L99.3618 26.972C88.4317 23.6622 74.5012 28.3861 74.5012 28.3861L74.769 25.4691L75.8962 20.6558C75.8962 20.6558 73.5216 16.8029 76.0198 15.2214C77.1811 14.4843 78.0856 14.4734 78.7148 14.6749C79.1406 14.806 79.5183 15.0595 79.801 15.4038C80.1351 15.0641 80.5117 14.7689 80.9213 14.5253C81.8613 13.9542 83.3389 13.3954 85.1437 13.8681C86.0858 14.1148 87.1173 14.6428 88.2076 15.5972C88.2076 15.5972 90.2399 14.5725 92.5223 14.8416C93.8448 15.0001 95.2507 15.5931 96.3942 17.0782C96.3942 17.0782 98.542 16.0535 100.204 16.8609C100.602 17.0537 100.947 17.3408 101.21 17.6971C102.819 19.8415 100.419 22.2461 100.419 22.2461L100.424 28.3137L100.113 27.8396Z" fill="#C1C1C1"/>
</g>
<path d="M99.0544 21.4974L99.4787 27.0752L73.7376 26.7411L74.4801 21.8526C74.4801 21.8526 71.8084 18.1992 74.1741 16.4251C75.2767 15.5978 76.1736 15.5166 76.8171 15.6662C77.2519 15.7636 77.6485 15.9864 77.9579 16.3069C78.264 15.9419 78.6158 15.6177 79.0045 15.3424C79.8967 14.6982 81.3272 14.0239 83.1621 14.3525C84.1184 14.524 85.1903 14.9673 86.353 15.8342C86.353 15.8342 88.2972 14.6483 90.5938 14.7412C91.9253 14.7945 93.3742 15.2754 94.6318 16.6642C94.6318 16.6642 96.6915 15.4762 98.4116 16.1464C98.8235 16.3067 99.1904 16.5646 99.4807 16.8978C101.257 18.9104 99.0544 21.4974 99.0544 21.4974Z" fill="#F8F8F8"/>
<path d="M73.702 29.6704C73.702 29.6704 88.5888 27.9168 99.7492 30.3535L99.4759 27.0779C99.4759 27.0779 85.6404 24.1875 73.7348 26.7438L73.702 29.6704Z" fill="#AEADAA"/>
<path d="M99.0544 21.4974L99.4786 27.0752L98.1806 23.1676C94.3961 20.6845 82.9249 21.7488 82.9249 21.7488C91.3213 20.3292 97.1163 21.3935 97.1163 21.3935C100.636 19.9275 99.0639 17.0857 98.4143 16.1457C98.8262 16.3061 99.193 16.5639 99.4834 16.8972C101.257 18.9104 99.0544 21.4974 99.0544 21.4974Z" fill="#AEADAA"/>
<path d="M90.5959 14.7405C89.6524 14.8642 87.4678 15.2618 86.4335 16.3869L86.0797 17.8823C86.094 17.7593 86.4212 14.6456 81.8613 14.2979L83.1641 14.3539C84.1205 14.5254 85.1923 14.9687 86.355 15.8356C86.355 15.8356 88.2992 14.6497 90.5959 14.7405Z" fill="#AEADAA"/>
<path d="M78.2735 16.7421L78.3049 18.0844C78.2585 17.4696 78.0146 16.2147 76.8177 15.6675C77.2525 15.7649 77.6492 15.9877 77.9586 16.3083C78.2647 15.9433 78.6164 15.6191 79.0051 15.3437C78.6315 15.7295 78.3774 16.2152 78.2735 16.7421Z" fill="#AEADAA"/>
<path d="M78.3049 18.0844C78.3149 18.2016 78.3176 18.3194 78.3131 18.4369L78.3049 18.0844Z" fill="#C92B49"/>
</svg>
