<svg width="15" height="14" viewBox="0 0 15 14" fill="none" xmlns="http://www.w3.org/2000/svg">
<path fill-rule="evenodd" clip-rule="evenodd" d="M7.18531 1.875C4.56406 1.875 2.73706 3.9285 2.73706 5.77125C2.73706 7.3305 2.30431 8.05125 1.92181 8.68725C1.61506 9.198 1.37281 9.6015 1.37281 10.4782C1.49806 11.8927 2.43181 12.636 7.18531 12.636C11.9126 12.636 12.8756 11.8597 13.0001 10.4295C12.9978 9.6015 12.7556 9.198 12.4488 8.68725C12.0663 8.05125 11.6336 7.3305 11.6336 5.77125C11.6336 3.9285 9.80656 1.875 7.18531 1.875ZM7.18532 13.761C3.67832 13.761 0.508821 13.5135 0.250071 10.5262C0.247821 9.29025 0.625071 8.66175 0.958071 8.10825C1.29482 7.54725 1.61207 7.0185 1.61207 5.77125C1.61207 3.3465 3.85157 0.75 7.18532 0.75C10.5191 0.75 12.7586 3.3465 12.7586 5.77125C12.7586 7.0185 13.0758 7.54725 13.4126 8.10825C13.7456 8.66175 14.1228 9.29025 14.1228 10.4782C13.8611 13.5135 10.6923 13.761 7.18532 13.761Z" fill="#1D1617"/>
</svg>
